<?xml version="1.0" encoding="utf-8"?>
<!-- Generator: Adobe Illustrator 27.5.0, SVG Export Plug-In . SVG Version: 6.00 Build 0)  -->
<svg version="1.1" xmlns="http://www.w3.org/2000/svg" xmlns:xlink="http://www.w3.org/1999/xlink" x="0px" y="0px"
	 viewBox="0 0 500 500" style="enable-background:new 0 0 500 500;" xml:space="preserve">
<g id="Background_Complete">
	<g>
		<rect y="382.398" style="fill:#EBEBEB;" width="500" height="0.25"/>
		<rect x="428.222" y="398.494" style="fill:#EBEBEB;" width="21.679" height="0.25"/>
		<rect x="310.558" y="393.306" style="fill:#EBEBEB;" width="34.109" height="0.25"/>
		<rect x="396.586" y="389.208" style="fill:#EBEBEB;" width="44.525" height="0.25"/>
		<rect x="161.877" y="394.25" style="fill:#EBEBEB;" width="11.138" height="0.25"/>
		<rect x="114.585" y="394.25" style="fill:#EBEBEB;" width="38.389" height="0.25"/>
		<rect x="66.307" y="390.028" style="fill:#EBEBEB;" width="27.695" height="0.25"/>
		<path style="fill:#EBEBEB;" d="M237.014,337.8H43.915c-3.147,0-5.708-2.561-5.708-5.708V60.66c0-3.147,2.561-5.708,5.708-5.708
			h193.099c3.146,0,5.707,2.561,5.707,5.708v271.432C242.721,335.239,240.16,337.8,237.014,337.8z M43.915,55.203
			c-3.01,0-5.458,2.448-5.458,5.458v271.432c0,3.01,2.448,5.458,5.458,5.458h193.099c3.009,0,5.457-2.448,5.457-5.458V60.66
			c0-3.009-2.448-5.458-5.457-5.458H43.915z"/>
		<path style="fill:#EBEBEB;" d="M453.31,337.8H260.212c-3.147,0-5.707-2.561-5.707-5.708V60.66c0-3.147,2.561-5.708,5.707-5.708
			H453.31c3.148,0,5.708,2.561,5.708,5.708v271.432C459.019,335.239,456.458,337.8,453.31,337.8z M260.212,55.203
			c-3.009,0-5.457,2.448-5.457,5.458v271.432c0,3.01,2.448,5.458,5.457,5.458H453.31c3.01,0,5.458-2.448,5.458-5.458V60.66
			c0-3.009-2.448-5.458-5.458-5.458H260.212z"/>
	</g>
	<g>
		<g>
			<rect x="286.111" y="95" style="fill:#E0E0E0;" width="132.737" height="287.398"/>
			<rect x="295.626" y="105.667" style="fill:#FAFAFA;" width="113.707" height="276.732"/>
			<path style="fill:#FFFFFF;" d="M402.936,142.945c-4.409-0.181-6.354,0.121-8.029-2.202c-1.675-2.323-8.222-3.567-10.604-1.542
				c-2.382,2.025-3.303,3.433-8.199,2.231c-4.895-1.202-6.641-0.327-7.531,1.272c-0.889,1.599-12.298,0.828-9.17,3.114h42.536
				C401.939,145.818,407.345,143.126,402.936,142.945z"/>
			<path style="fill:#FFFFFF;" d="M364.573,167.348c-1.875-1.969-7.748-2.625-13.221-1.094c-5.473,1.531-0.864-8.061-10.965-6.453
				c-14.431,2.297-11.185,9.161-17.035,8.531c-5.849-0.63-23.359,1.058-14.546,4.485h52.455
				C361.261,172.816,366.448,169.316,364.573,167.348z"/>
			<path style="fill:#FFFFFF;" d="M389.947,215.195c-0.903-0.948-3.732-1.264-6.368-0.527c-2.636,0.738-0.416-3.883-5.282-3.108
				c-6.951,1.106-5.388,4.413-8.205,4.109c-2.818-0.303-11.251,0.51-7.007,2.16h25.266
				C388.352,217.829,390.85,216.143,389.947,215.195z"/>
			<g>
				
					<rect x="180.333" y="95" transform="matrix(-1 -1.224647e-16 1.224647e-16 -1 466.4444 477.3984)" style="fill:#EBEBEB;" width="105.778" height="287.398"/>
				<path style="fill:#F5F5F5;" d="M273.167,213.833h-79.889c-2.573,0-4.667-2.093-4.667-4.666V115.5
					c0-2.573,2.093-4.667,4.667-4.667h79.889c2.573,0,4.667,2.094,4.667,4.667v93.667
					C277.833,211.74,275.74,213.833,273.167,213.833z M193.278,111.833c-2.021,0-3.667,1.645-3.667,3.667v93.667
					c0,2.021,1.645,3.666,3.667,3.666h79.889c2.022,0,3.667-1.644,3.667-3.666V115.5c0-2.022-1.645-3.667-3.667-3.667H193.278z"/>
				<path style="fill:#F5F5F5;" d="M273.167,373.833h-79.889c-2.573,0-4.667-2.093-4.667-4.666V225.833
					c0-2.573,2.093-4.666,4.667-4.666h79.889c2.573,0,4.667,2.093,4.667,4.666v143.334
					C277.833,371.74,275.74,373.833,273.167,373.833z M193.278,222.167c-2.021,0-3.667,1.644-3.667,3.666v143.334
					c0,2.022,1.645,3.666,3.667,3.666h79.889c2.022,0,3.667-1.645,3.667-3.666V225.833c0-2.021-1.645-3.666-3.667-3.666H193.278z"/>
				<rect x="176.778" y="95" style="fill:#E0E0E0;" width="3.556" height="287.398"/>
				<circle style="fill:#E0E0E0;" cx="233.222" cy="145" r="3"/>
				<g>
					<path style="opacity:0.4;fill:#E0E0E0;" d="M196.611,244.833c0,3.13-2.537,5.667-5.667,5.667c-3.13,0-5.667-2.537-5.667-5.667
						c0-3.13,2.537-5.667,5.667-5.667C194.074,239.167,196.611,241.704,196.611,244.833z"/>
					<path style="fill:#E0E0E0;" d="M199.833,241.5c0,3.13-2.537,5.667-5.667,5.667c-3.13,0-5.667-2.537-5.667-5.667
						s2.537-5.667,5.667-5.667C197.296,235.833,199.833,238.37,199.833,241.5z"/>
				</g>
			</g>
		</g>
		<g>
			<g>
				<g>
					<g>
						<path style="fill:#E6E6E6;" d="M145.586,352.222h-7.338c-2.113,0-3.826,1.713-3.826,3.826v26.35h14.99v-26.35
							C149.412,353.935,147.699,352.222,145.586,352.222z"/>
						<path style="fill:#E6E6E6;" d="M144.295,379.608h-4.757V90.8c0-1.313,1.065-2.378,2.378-2.378l0,0
							c1.314,0,2.378,1.065,2.378,2.378V379.608z"/>
						<circle style="fill:#E6E6E6;" cx="141.917" cy="88.422" r="5.809"/>
						<path style="fill:#E6E6E6;" d="M142.78,119.292c-0.855,0-1.549-0.694-1.549-1.549s0.694-1.549,1.549-1.549
							c3.061,0,5.551-2.49,5.551-5.551c0-0.856,0.694-1.549,1.549-1.549c0.856,0,1.549,0.694,1.549,1.549
							C151.43,115.411,147.55,119.292,142.78,119.292z"/>
						<path style="fill:#E6E6E6;" d="M140.241,144.961c0.856,0,1.549-0.694,1.549-1.549c0-0.856-0.694-1.549-1.549-1.549
							c-3.061,0-5.551-2.49-5.551-5.551c0-0.856-0.694-1.549-1.549-1.549c-0.856,0-1.549,0.694-1.549,1.549
							C131.591,141.08,135.471,144.961,140.241,144.961z"/>
						<path style="fill:#E6E6E6;" d="M142.78,176.181c-0.855,0-1.549-0.694-1.549-1.549c0-0.856,0.694-1.549,1.549-1.549
							c3.061,0,5.551-2.49,5.551-5.551c0-0.856,0.694-1.549,1.549-1.549c0.856,0,1.549,0.694,1.549,1.549
							C151.43,172.3,147.55,176.181,142.78,176.181z"/>
						<path style="fill:#E6E6E6;" d="M140.241,201.85c0.856,0,1.549-0.694,1.549-1.549c0-0.856-0.694-1.549-1.549-1.549
							c-3.061,0-5.551-2.49-5.551-5.551c0-0.856-0.694-1.549-1.549-1.549c-0.856,0-1.549,0.694-1.549,1.549
							C131.591,197.969,135.471,201.85,140.241,201.85z"/>
					</g>
				</g>
			</g>
			<path style="fill:#F5F5F5;" d="M154.694,167.77c-1.346-5.082-8.031-2.745-8.067-0.001c-0.036,2.744-6.84,92.508-6.84,92.508
				l6.777,13.916l-1.973,20.383l10.528,5.881l5.991-5.879l-0.439-33.907l5.303-11.955
				C165.975,248.716,159.883,187.37,154.694,167.77z"/>
			<polygon style="fill:#EBEBEB;" points="149.412,209.167 146.564,274.193 143.577,268.059 			"/>
			<polygon style="fill:#EBEBEB;" points="160.672,260.671 159.968,239.167 163.394,254.535 			"/>
		</g>
		<g>
			<rect x="48.667" y="98.75" style="fill:#EBEBEB;" width="64.778" height="220.833"/>
			
				<rect x="113.444" y="98.75" transform="matrix(-1 -1.224647e-16 1.224647e-16 -1 228.6666 418.3333)" style="fill:#E0E0E0;" width="1.778" height="220.833"/>
			
				<rect x="-23.361" y="182.778" transform="matrix(-1.836970e-16 1 -1 -1.836970e-16 290.2223 128.1111)" style="fill:#F5F5F5;" width="208.834" height="52.778"/>
			<polygon style="fill:#FAFAFA;" points="73.245,313.583 90.755,104.75 100.866,104.75 83.356,313.583 			"/>
			<polygon style="fill:#FAFAFA;" points="64.489,313.583 82,104.75 87.056,104.75 69.545,313.583 			"/>
		</g>
	</g>
</g>
<g id="Background_Simple" style="display:none;">
	<g style="display:inline;">
		<path style="fill:#407BFF;" d="M71.108,156.373c-0.684-47.119,32.856-70.584,70.815-61.438
			c18.205,4.386,35.979,29.003,53.07,37.168c22.296,10.652,44.206,7.205,66.905,10.676c56.459,8.634,51.074,31.296,82.744,68.388
			c22.265,26.077,65.389,32.509,72.177,71.609c8.296,47.785-45.705,59.043-82.107,44.795
			c-41.809-16.364-64.822,35.157-129.815,15.677C140.963,324.084,71.177,227.147,71.108,156.373z"/>
		<path style="opacity:0.9;fill:#FFFFFF;" d="M71.108,156.373c-0.684-47.119,32.856-70.584,70.815-61.438
			c18.205,4.386,35.979,29.003,53.07,37.168c22.296,10.652,44.206,7.205,66.905,10.676c56.459,8.634,51.074,31.296,82.744,68.388
			c22.265,26.077,65.389,32.509,72.177,71.609c8.296,47.785-45.705,59.043-82.107,44.795
			c-41.809-16.364-64.822,35.157-129.815,15.677C140.963,324.084,71.177,227.147,71.108,156.373z"/>
	</g>
</g>
<g id="Shadow_1_">
	<ellipse id="_x3C_Path_x3E__337_" style="fill:#F5F5F5;" cx="250" cy="416.238" rx="193.889" ry="11.323"/>
</g>
<g id="Character_1">
	<g>
		<path style="fill:#B55B52;" d="M227.712,163.624c-0.431,5.341-0.816,10.796-1.197,16.192c-0.179,2.704-0.338,5.409-0.462,8.11
			c-0.156,2.701-0.273,5.398-0.36,8.092c-0.032,1.343-0.1,2.693-0.114,4.032l-0.036,2.012l-0.007,0.788
			c-0.015,0.222,0.024,0.468,0.033,0.704c0.136,1.941,0.893,4.173,1.904,6.379c2.075,4.406,5.188,8.856,8.432,12.887l0.069,0.085
			c0.863,1.072,0.693,2.64-0.379,3.502c-0.894,0.72-2.135,0.719-3.023,0.077c-1.237-0.896-2.298-1.789-3.391-2.747
			c-1.088-0.944-2.13-1.942-3.135-2.989c-2.012-2.093-3.897-4.366-5.536-6.946c-1.634-2.576-3.062-5.476-3.732-8.973
			c-0.067-0.444-0.158-0.875-0.189-1.339c-0.041-0.446-0.089-0.964-0.093-1.265l-0.083-2.099c-0.063-1.402-0.081-2.792-0.117-4.19
			c-0.031-2.788-0.032-5.571,0.008-8.348c0.058-2.777,0.157-5.548,0.273-8.318c0.224-5.55,0.611-11.033,1.182-16.609
			c0.281-2.747,2.736-4.746,5.483-4.464c2.709,0.277,4.691,2.669,4.475,5.37L227.712,163.624z"/>
		<path style="fill:#407BFF;" d="M223.177,155.681c7.806,5.502,4.716,16.273,4.716,16.273l-15.089,7.362
			c0,0-3.029-12.727-1.087-18.286C213.738,155.244,217.394,151.605,223.177,155.681z"/>
		<path style="opacity:0.2;" d="M223.559,165.816c-1.838-3.276-5.408-3.977-9.784-2.129c-0.956,0.562-1.87,1.404-2.709,2.457
			c0.021,5.943,1.742,13.173,1.742,13.173l12.09-5.896C225.089,170.566,224.749,167.922,223.559,165.816z"/>
		<path style="fill:#B55B52;" d="M234.795,222.051l7.018,4.031l-7.85,5.055c0,0-3.38-3.522-2.87-7.555L234.795,222.051z"/>
		<polygon style="fill:#B55B52;" points="245.327,232.401 238.183,235.326 233.964,231.137 241.813,226.081 		"/>
		<g>
			<path style="fill:#407BFF;" d="M259.633,257.765l-25.785,5.088c-3.836,0.757-7.595-1.763-8.352-5.599l-1.821-9.23
				c-0.757-3.837,1.763-7.595,5.599-8.352l25.784-5.088c3.837-0.757,7.595,1.763,8.352,5.599l1.821,9.23
				C265.989,253.25,263.47,257.008,259.633,257.765z"/>
			<path style="fill:#407BFF;" d="M234.457,238.966l-0.747-3.79c-0.363-1.839,0.838-3.631,2.678-3.995l8.866-1.749
				c1.841-0.363,3.633,0.838,3.996,2.679l0.748,3.79l-1.877,0.37l-0.748-3.79c-0.158-0.805-0.949-1.32-1.748-1.172l-8.865,1.749
				c-0.805,0.16-1.331,0.943-1.172,1.748l0.747,3.79L234.457,238.966z"/>
			
				<rect x="222.938" y="244.112" transform="matrix(0.9811 -0.1936 0.1936 0.9811 -42.8435 51.8228)" style="fill:#FFFFFF;" width="41.618" height="2.044"/>
			<polygon style="fill:#FFFFFF;" points="249.431,247.588 239.42,249.564 237.411,246.385 250.083,243.884 			"/>
		</g>
		<polygon style="fill:#B55B52;" points="165.648,405.867 175.298,406.79 180.215,384.303 170.565,383.38 		"/>
		<polygon style="fill:#B55B52;" points="112.707,395.279 121.761,398.555 129.847,377.013 120.792,373.737 		"/>
		<path style="fill:#263238;" d="M124.259,394.078l-9.964-4.632c-0.363-0.168-0.774-0.053-0.989,0.277l-4.8,7.356
			c-0.498,0.763-0.154,1.864,0.689,2.238c3.502,1.555,5.271,2.129,9.652,4.166c2.696,1.253,8.475,4.421,12.197,6.152
			c3.641,1.693,5.632-1.858,4.237-2.912c-6.256-4.726-8.366-8.355-9.793-11.41C125.23,394.762,124.789,394.325,124.259,394.078z"/>
		<path style="fill:#263238;" d="M176.511,403.871l-11.603,0c-0.422,0-0.803,0.293-0.916,0.705l-2.523,9.18
			c-0.262,0.952,0.439,1.853,1.415,1.837c4.054-0.07,6.035-0.307,11.137-0.307c3.139,0,11.253,0.326,15.587,0.326
			c4.24,0,5.127-4.286,3.372-4.675c-7.866-1.741-12.4-4.141-14.827-6.431C177.716,404.093,177.129,403.871,176.511,403.871z"/>
		<polygon style="opacity:0.2;" points="180.212,384.309 177.679,395.901 167.823,395.901 170.558,383.386 		"/>
		<polygon style="opacity:0.2;" points="120.788,373.742 129.846,377.02 125.674,388.122 116.616,384.845 		"/>
		<path style="fill:#407BFF;" d="M225.315,162.41c-1.544,6.534-6.297,20.433-19.902,49.885l-38.267-10.653
			c4.515-13.964,7.149-23.159,8.685-50.145c0.282-4.96,4.752-8.61,9.668-7.896c2.377,0.346,5.005,0.801,7.617,1.394
			c6.526,1.482,11.859,2.745,17.376,4.838c3.969,1.505,8.15,3.407,11.128,4.824C224.531,156.042,226.056,159.273,225.315,162.41z"/>
		<path style="fill:#FFFFFF;" d="M214.245,154.209c0.011-1.19-0.765-2.188-1.848-2.528c0.117-0.117,0.223-0.234,0.308-0.372
			c0.096-0.149,0.17-0.298,0.244-0.457c0.011-0.011,0.011-0.032,0.011-0.043c-0.818-0.34-1.646-0.669-2.464-0.977
			c-0.839-0.319-1.668-0.616-2.497-0.893c-3.92-1.339-7.851-2.326-12.302-3.357c-0.839-0.191-1.7-0.382-2.582-0.584
			c-0.871-0.202-1.732-0.382-2.592-0.552c-0.042,0.181-0.064,0.361-0.064,0.552c0,0.691,0.287,1.381,0.775,1.87
			c0.149,0.149,0.308,0.266,0.478,0.372c-0.478,0.648-0.659,1.508-0.404,2.348c0.234,0.797,0.829,1.402,1.551,1.689
			c-0.34,0.701-0.382,1.53-0.032,2.295c0.351,0.744,0.998,1.254,1.742,1.456c-0.255,0.712-0.191,1.53,0.234,2.242
			c0.414,0.69,1.105,1.126,1.849,1.253c-0.17,0.733-0.043,1.53,0.446,2.189c0.478,0.648,1.19,1.02,1.944,1.073
			c-0.117,0.744,0.075,1.53,0.606,2.135c0.52,0.616,1.264,0.935,2.018,0.935h0.011c0,0.074-0.021,0.149-0.021,0.223
			c0,0.701,0.276,1.381,0.775,1.88c0.499,0.489,1.179,0.775,1.88,0.775c0.691,0,1.381-0.287,1.87-0.775
			c0.499-0.499,0.786-1.179,0.786-1.88c0-0.128-0.021-0.244-0.043-0.372c0.298,0.096,0.595,0.159,0.893,0.159
			c0.69,0,1.37-0.266,1.891-0.786c0.775-0.775,0.956-1.912,0.574-2.868c1.052,0.085,2.104-0.457,2.603-1.455
			c0.51-1.041,0.287-2.242-0.468-3.038C213.469,156.376,214.245,155.388,214.245,154.209z"/>
		<path style="fill:#B55B52;" d="M200.284,125.909c-0.46,5.896-2.218,16.445-7.169,19.087c0,0,0,8.644,11.193,20.081
			c11.144-7.539,6.183-15.243,6.183-15.243c-5.82-3.225-4.372-7.805-2.076-11.847L200.284,125.909z"/>
		<path style="opacity:0.2;" d="M201.167,127.226c-0.382,1.673-1.247,5.504-0.348,10.243c0.438,2.337,2.943,4.044,5.74,5.044
			c0.303-1.516,1.022-3.055,1.853-4.527L201.167,127.226z"/>
		<path style="fill:#263238;" d="M225.503,117.395c0.124-3.726-2.017-7.044-4.781-7.411c-2.765-0.367-5.106,2.356-5.23,6.082
			c-0.124,3.726,2.017,7.044,4.781,7.411C223.038,123.844,225.38,121.121,225.503,117.395z"/>
		<path style="fill:#B55B52;" d="M198.031,114.778c-1.878,9.523-2.876,13.514,0.598,19.564c5.226,9.1,17.334,9.324,22.02,0.554
			c4.217-7.894,6.58-22.142-1.618-28.274C210.954,100.582,199.909,105.255,198.031,114.778z"/>
		<path style="fill:#263238;" d="M197.442,120.452c4.117-0.809,9.871-3.73,8.056-10.68c2.153,4.129,16.656,7.017,18.553,5.257
			c1.897-1.76,2.694-5.036,2.429-6.895c-1.24-4.161-13.191-7.437-19.831-6.64C200.009,102.291,182.303,115.86,197.442,120.452z"/>
		<path style="fill:#263238;" d="M190.856,105.659c-5.02,0.012-11.046,4.533-11.276,8.767s3.652,7.657,8.672,7.644
			c5.02-0.012,9.277-3.454,9.507-7.688C197.99,110.148,195.876,105.647,190.856,105.659z"/>
		<path style="fill:#263238;" d="M230.623,104.693c0.124-3.726-2.017-7.044-4.781-7.411c-2.765-0.367-5.106,2.356-5.23,6.082
			c-0.124,3.726,2.017,7.044,4.781,7.411C228.158,111.142,230.499,108.419,230.623,104.693z"/>
		<path style="fill:#263238;" d="M225.878,98.641c0.314-4.788-2.302-9.146-5.844-9.733c-3.541-0.587-6.667,2.819-6.981,7.608
			c-0.314,4.788,2.302,9.146,5.844,9.733C222.439,106.835,225.564,103.429,225.878,98.641z"/>
		<path style="fill:#263238;" d="M217.007,97.156c0.495-6.046-4.336-13.76-9.411-14.468c-5.075-0.707-9.59,3.62-10.085,9.666
			c-0.495,6.046,3.217,11.521,8.292,12.228C210.878,105.29,216.512,103.202,217.007,97.156z"/>
		<path style="fill:#263238;" d="M197.923,99.35c-4.41-2.807-12.234-2.224-14.813,1.36c-2.579,3.585-1.094,8.766,3.316,11.574
			c4.41,2.807,10.076,2.177,12.655-1.408C201.661,107.292,202.333,102.158,197.923,99.35z"/>
		<path style="fill:#263238;" d="M207.986,93.798c-3.045-6.14-12.216-10.789-17.54-8.516c-5.323,2.273-7.171,9.093-4.126,15.232
			c3.045,6.14,9.828,9.274,15.152,7.001C206.796,105.241,211.031,99.937,207.986,93.798z"/>
		<path style="fill:#407BFF;" d="M193.96,122.439c1.594-3.534,6.429-11.176,12.833-14.939c4.553-2.676,9.731-2.233,12.674-0.812
			c3.727,1.8,4.459,5.058,5.375,7.313c0.192,0.474,0.86,0.479,1.062,0.008c0.566-1.319,0.668-1.943,0.724-2.792
			c0.126-1.897-0.632-6.846-6.13-9.325c-5.498-2.479-12.977-2.502-18.762,2.136c-8.516,6.827-9.938,16.95-9.362,18.042
			C192.949,123.162,193.96,122.439,193.96,122.439z"/>
		<g>
			<g>
				<path style="fill:#407BFF;" d="M193.738,105.065c-3.152,2.109-6.063,2.101-8.176,0.587c2.83,6.832,13.359,11.079,19.054,2.616
					l-1.824-5.021C200.393,102.382,196.889,102.956,193.738,105.065z"/>
				<path style="opacity:0.2;" d="M193.738,105.065c-3.152,2.109-6.063,2.101-8.176,0.587c2.83,6.832,13.359,11.079,19.054,2.616
					l-1.824-5.021C200.393,102.382,196.889,102.956,193.738,105.065z"/>
			</g>
			<g>
				<path style="fill:#407BFF;" d="M214.479,97.95c-0.472-3.715,2.545-5.89,4.605-6.62c-5.268-1.852-14.244,1.393-13.246,10.747
					l1.361,5.25C212.909,106.677,214.951,101.666,214.479,97.95z"/>
				<path style="opacity:0.2;" d="M214.479,97.95c-0.472-3.715,2.545-5.89,4.605-6.62c-5.268-1.852-14.244,1.393-13.246,10.747
					l1.361,5.25C212.909,106.677,214.951,101.666,214.479,97.95z"/>
			</g>
			<path style="fill:#407BFF;" d="M200.966,103.795c0.522,0.556,1.43,4.332,3.39,4.929c1.96,0.596,3.386-1.212,3.52-2.827
				c0.134-1.615-0.58-6.151-2.964-4.587C201.884,101.032,199.958,102.724,200.966,103.795z"/>
		</g>
		<path style="fill:#B55B52;" d="M193.051,120.573c-0.316,1.987,0.316,3.935,1.309,5.258c1.493,1.989,3.748,1.018,4.596-1.181
			c0.763-1.979,0.906-5.4-1.201-6.604C195.68,116.858,193.412,118.301,193.051,120.573z"/>
		<g>
			<path style="fill:#263238;" d="M205.413,212.295c0,0,2.208,77.307-3.985,106.49c-6.442,30.355-20.998,73.743-20.998,73.743
				l-14.781-0.886c0,0,9.935-56.716,12.654-80.119c3.747-32.264-0.911-107.028-0.911-107.028L205.413,212.295z"/>
			<path style="opacity:0.2;" d="M189.938,243.087c-0.616-7.012-6.268-7.192-10.868-2.794c0.52,14.926,0.882,32.275,0.584,47.456
				C185.359,276.615,191.361,259.033,189.938,243.087z"/>
			<path style="opacity:0.2;" d="M176.355,154.145c-0.287,1.009-0.574,1.976-0.871,2.89c-1.455,4.674-2.847,8.286-4.313,11.335
				c1.147,0.181,2.263,0.181,3.325,0.043c4.568-0.574,8.212-3.761,9.275-7.15C184.45,159.16,180.955,155.048,176.355,154.145z"/>
		</g>
		<polygon style="fill:#407BFF;" points="163.771,392.713 182.736,393.356 185.11,385.698 164.567,384.331 		"/>
		<path style="fill:#263238;" d="M195.307,209.482c0,0-12.045,65.448-27.865,100.315c-12.778,28.163-38.393,74.819-38.393,74.819
			l-12.677-4.358c0,0,18.151-55.137,26.319-74.536c26.142-62.089,7.442-90.414,24.455-104.08L195.307,209.482z"/>
		<polygon style="fill:#407BFF;" points="114.923,381.491 129.546,386.144 133.187,379.915 116.121,374.799 		"/>
		<path style="fill:#263238;" d="M167.198,199.237l-2.679,2.945c-0.208,0.229,0.031,0.587,0.474,0.71l40.132,11.172
			c0.345,0.096,0.678,0.007,0.76-0.204l1.299-3.329c0.09-0.231-0.153-0.515-0.531-0.62l-38.751-10.788
			C167.616,199.044,167.331,199.09,167.198,199.237z"/>
		<path style="fill:#407BFF;" d="M171.196,205.019l-1.038-0.289c-0.207-0.058-0.334-0.208-0.284-0.334l1.726-4.315
			c0.051-0.126,0.261-0.183,0.468-0.125l1.038,0.289c0.207,0.058,0.334,0.208,0.284,0.334l-1.726,4.315
			C171.613,205.02,171.402,205.076,171.196,205.019z"/>
		<path style="fill:#407BFF;" d="M202.104,213.623l-1.038-0.289c-0.207-0.057-0.334-0.208-0.284-0.334l1.726-4.315
			c0.051-0.126,0.261-0.182,0.468-0.125l1.038,0.289c0.207,0.058,0.334,0.208,0.284,0.334l-1.726,4.315
			C202.521,213.625,202.311,213.681,202.104,213.623z"/>
		<path style="fill:#407BFF;" d="M186.65,209.321l-1.038-0.289c-0.207-0.058-0.335-0.208-0.284-0.334l1.726-4.315
			c0.051-0.126,0.261-0.182,0.468-0.125l1.038,0.289c0.207,0.057,0.334,0.208,0.284,0.334l-1.726,4.315
			C187.067,209.322,186.857,209.379,186.65,209.321z"/>
		<path style="fill:#263238;" d="M211.561,121.12c-0.2,0.763,0.043,1.488,0.542,1.618c0.499,0.131,1.065-0.382,1.265-1.145
			c0.2-0.763-0.043-1.488-0.541-1.618C212.328,119.844,211.761,120.356,211.561,121.12z"/>
		<path style="fill:#263238;" d="M220.188,123.378c-0.2,0.763,0.043,1.488,0.542,1.618c0.499,0.131,1.065-0.382,1.265-1.145
			c0.2-0.763-0.043-1.488-0.541-1.618C220.954,122.102,220.387,122.615,220.188,123.378z"/>
		<path style="fill:#263238;" d="M221.221,122.217l1.971-0.049C223.193,122.168,221.877,123.354,221.221,122.217z"/>
		<path style="fill:#A02724;" d="M217.565,124.092c0,0,0.435,3.624,1.445,5.583c-1.254,0.677-2.854-0.202-2.854-0.202
			L217.565,124.092z"/>
		<path style="fill:#263238;" d="M212.775,131.781c0.089-0.013,0.166-0.078,0.191-0.171c0.032-0.124-0.042-0.25-0.166-0.283
			c-3.34-0.874-4.301-3.626-4.311-3.654c-0.04-0.121-0.167-0.187-0.293-0.146c-0.122,0.04-0.187,0.172-0.146,0.293
			c0.041,0.122,1.041,3.015,4.632,3.955C212.714,131.784,212.745,131.786,212.775,131.781z"/>
		<path style="fill:#263238;" d="M209.875,117.667c0.078-0.011,0.153-0.042,0.219-0.094c1.623-1.278,3.245-0.75,3.263-0.745
			c0.243,0.082,0.506-0.049,0.587-0.291c0.082-0.243-0.048-0.505-0.29-0.587c-0.085-0.028-2.119-0.69-4.133,0.895
			c-0.201,0.159-0.235,0.45-0.077,0.651C209.551,117.631,209.717,117.691,209.875,117.667z"/>
		<path style="fill:#263238;" d="M225.329,120.439c0.029-0.004,0.057-0.011,0.084-0.021c0.242-0.083,0.37-0.347,0.288-0.589
			c-0.834-2.424-2.903-2.968-2.991-2.991c-0.248-0.062-0.499,0.088-0.562,0.336c-0.062,0.248,0.088,0.499,0.335,0.562
			c0.077,0.02,1.678,0.466,2.341,2.394C224.898,120.345,225.112,120.47,225.329,120.439z"/>
		<path style="fill:#B55B52;" d="M184.064,154.962c-1.596,2.812-3.262,5.785-4.792,8.732c-1.552,2.956-3.083,5.918-4.488,8.919
			c-1.4,3.002-2.717,6.022-3.889,9.044c-1.132,3.019-2.16,6.075-2.716,8.982c-0.535,2.716-0.486,5.683-0.071,8.773
			c0.43,3.075,1.149,6.224,2.107,9.339c0.911,3.133,2.05,6.246,3.316,9.32c1.233,3.073,2.644,6.171,4.081,9.095l-4.195,2.634
			c-4.158-5.788-7.529-11.891-10.312-18.515c-1.34-3.321-2.518-6.767-3.273-10.428c-0.374-1.832-0.666-3.711-0.801-5.655
			c-0.126-1.929-0.06-4.004,0.205-5.979c0.522-3.852,1.524-7.359,2.661-10.782c1.139-3.414,2.466-6.705,3.898-9.925
			c2.862-6.468,6.028-12.599,9.697-18.699L184.064,154.962z"/>
		<path style="fill:#B55B52;" d="M172.315,227.301l2.599,6.62l6.647-5.513c0,0-3.065-4.346-7.127-4.507L172.315,227.301z"/>
		<polygon style="fill:#B55B52;" points="177.422,237.984 183.921,235.713 181.561,228.408 174.914,233.921 		"/>
		<path style="fill:#407BFF;" d="M190.47,147.931c1.241,3.97-7.495,17.737-7.495,17.737l-12.369-10.894c0,0,3.551-7.46,6.887-9.604
			C182.864,141.717,189.054,143.401,190.47,147.931z"/>
		<path style="fill:#407BFF;" d="M129.202,396.756c0.057-0.105,0.105-0.22,0.144-0.348c0.115-0.378-0.015-0.635-0.143-0.785
			c-0.815-0.946-4.317-0.46-4.713-0.402c-0.091,0.014-0.166,0.079-0.19,0.169c-0.024,0.09,0.008,0.184,0.08,0.242
			c1.023,0.806,2.915,2.101,4.099,1.73C128.794,397.263,129.036,397.06,129.202,396.756z M125.114,395.608
			c1.406-0.153,3.308-0.181,3.737,0.317c0.054,0.062,0.109,0.159,0.051,0.348c-0.106,0.349-0.29,0.561-0.562,0.647
			C127.701,397.121,126.515,396.634,125.114,395.608z"/>
		<path style="fill:#407BFF;" d="M128.274,393.601c0.048-0.087,0.083-0.175,0.104-0.262c0.051-0.209,0.062-0.606-0.434-0.915
			c-0.315-0.196-0.658-0.241-1.02-0.133c-1.361,0.406-2.56,2.954-2.611,3.062c-0.035,0.075-0.027,0.162,0.02,0.23
			c0.047,0.068,0.127,0.105,0.209,0.099C125.526,395.602,127.723,394.61,128.274,393.601z M124.973,395.078
			c0.454-0.831,1.293-2.108,2.083-2.343c0.232-0.069,0.442-0.042,0.642,0.082c0.254,0.157,0.256,0.302,0.229,0.412
			c-0.161,0.663-1.835,1.635-2.992,1.917C124.949,395.123,124.961,395.101,124.973,395.078z"/>
		<path style="fill:#407BFF;" d="M181.657,405.786c0.897,0,1.732-0.139,2.265-0.542c0.364-0.275,0.562-0.65,0.589-1.115
			c0.02-0.345-0.148-0.534-0.292-0.631c-1.052-0.713-5.003,1.082-5.785,1.449c-0.09,0.042-0.143,0.136-0.132,0.235
			c0.011,0.099,0.084,0.179,0.18,0.201C179.325,405.571,180.539,405.786,181.657,405.786z M183.505,403.785
			c0.199,0,0.355,0.03,0.456,0.098c0.048,0.032,0.096,0.084,0.088,0.221c-0.018,0.327-0.151,0.579-0.405,0.771
			c-0.681,0.515-2.285,0.583-4.361,0.199C180.708,404.453,182.574,403.785,183.505,403.785z"/>
		<path style="fill:#407BFF;" d="M178.533,405.389c0.03,0,0.06-0.006,0.088-0.017c1.31-0.536,3.951-2.653,3.802-3.747
			c-0.033-0.24-0.196-0.54-0.793-0.612c-2.295-0.276-3.282,3.915-3.323,4.094c-0.019,0.084,0.01,0.172,0.076,0.228
			C178.426,405.37,178.479,405.389,178.533,405.389z M181.419,401.463c0.051,0,0.104,0.003,0.156,0.01
			c0.243,0.029,0.374,0.101,0.389,0.214c0.086,0.635-1.739,2.308-3.073,3.041C179.196,403.716,180.03,401.463,181.419,401.463z"/>
		<path style="fill:#263238;" d="M212.595,119.959l1.971-0.049C214.566,119.91,213.251,121.096,212.595,119.959z"/>
	</g>
</g>
<g id="Character_2">
	<g>
		<path style="fill:#263238;" d="M304.518,230.066c-0.244,0.804-0.867,1.327-1.393,1.167c-0.526-0.159-0.754-0.94-0.51-1.744
			c0.244-0.804,0.867-1.327,1.393-1.167C304.534,228.481,304.762,229.262,304.518,230.066z"/>
		<path style="fill:#FF5652;" d="M302.961,231.231c0,0-2.19,2.766-4.013,3.868c0.691,1.191,2.453,1.277,2.453,1.277L302.961,231.231
			z"/>
		<path style="fill:#263238;" d="M308.345,228.204c-0.096-0.029-0.183-0.087-0.249-0.173c-1.335-1.749-3.149-1.635-3.168-1.634
			c-0.271,0.02-0.509-0.183-0.529-0.455c-0.02-0.272,0.183-0.508,0.455-0.529c0.096-0.007,2.369-0.151,4.026,2.019
			c0.165,0.217,0.124,0.526-0.093,0.692C308.657,228.225,308.492,228.249,308.345,228.204z"/>
		<path style="fill:#FF8B7B;" d="M317.141,242.893c-0.076,5.299,0.801,11.375,4.504,13.684c0,0-1.223,5.764-13.619,7.102
			c-13.63,1.471-7.115-4.863-7.115-4.863c5.851-2.844,5.508-6.723,3.752-10.847l8.753-6.78
			C314.875,239.911,317.169,240.954,317.141,242.893z"/>
		<path style="fill:#407BFF;" d="M323.821,258.337c0.817-1.854,1.709-3.971-0.572-4.403c-2.51-0.475-15.967,0.027-20.467,1.752
			c-4.5,1.725-2.866,5.187-2.866,5.187L323.821,258.337z"/>
		<path style="fill:#407BFF;" d="M310.401,409.919c-0.964,0.087-1.908,0.039-2.259-0.366c-0.123-0.142-0.233-0.392-0.056-0.779
			c0.099-0.217,0.276-0.374,0.527-0.467c1.219-0.453,3.981,0.806,4.098,0.859c0.068,0.031,0.109,0.101,0.104,0.175
			c-0.005,0.074-0.056,0.137-0.128,0.158C312.216,409.638,311.3,409.837,310.401,409.919z M309.078,408.569
			c-0.125,0.011-0.24,0.035-0.34,0.072c-0.16,0.06-0.267,0.151-0.326,0.281c-0.106,0.232-0.05,0.338,0.001,0.397
			c0.394,0.454,2.295,0.293,3.674-0.031C311.357,408.993,309.956,408.49,309.078,408.569z"/>
		<path style="fill:#407BFF;" d="M312.653,409.506c-0.025,0.002-0.05-0.001-0.074-0.009c-0.944-0.325-2.888-1.787-2.827-2.65
			c0.014-0.202,0.133-0.464,0.618-0.557c0.359-0.069,0.701,0.003,1.014,0.216c1.027,0.698,1.413,2.704,1.428,2.789
			c0.012,0.063-0.011,0.127-0.059,0.168C312.725,409.488,312.69,409.502,312.653,409.506z M310.544,406.625
			c-0.035,0.003-0.071,0.008-0.106,0.015c-0.317,0.061-0.326,0.19-0.329,0.232c-0.036,0.517,1.3,1.684,2.276,2.156
			c-0.15-0.582-0.528-1.769-1.202-2.227C310.979,406.663,310.769,406.605,310.544,406.625z"/>
		<polygon style="fill:#FF8B7B;" points="321.739,412.629 314.224,413.309 311.901,395.974 319.416,395.294 		"/>
		<path style="fill:#263238;" d="M313.356,408.385l8.207-0.743c0.307-0.028,0.592,0.161,0.686,0.455l2.089,6.545
			c0.217,0.678-0.25,1.382-0.96,1.435c-2.965,0.218-5.569,0.289-9.289,0.626c-4.351,0.394-3.202,0.812-8.297,1.346
			c-3.081,0.323-3.957-3.132-2.661-3.415c5.903-1.291,6.362-3.153,8.468-5.499C312.034,408.65,312.707,408.444,313.356,408.385z"/>
		<g>
			<path style="fill:#FF8B7B;" d="M331.948,262.386c0.515,0.454,0.832,0.749,1.211,1.11c0.368,0.344,0.706,0.697,1.049,1.046
				c0.683,0.698,1.328,1.414,1.958,2.139c1.264,1.444,2.417,2.962,3.543,4.494c2.196,3.104,4.141,6.371,5.797,9.78
				c0.415,0.851,0.787,1.725,1.18,2.585l0.149,0.337l0.178,0.449c0.119,0.299,0.233,0.599,0.323,0.898
				c0.203,0.6,0.351,1.198,0.471,1.794c0.47,2.384,0.431,4.63,0.138,6.722c-0.285,2.095-0.837,4.043-1.542,5.887
				c-0.346,0.924-0.748,1.817-1.181,2.69c-0.446,0.891-0.897,1.678-1.49,2.605l-5.202-2.246c0.196-1.497,0.417-3.216,0.512-4.775
				c0.094-1.587,0.103-3.133-0.029-4.561c-0.147-1.423-0.406-2.736-0.845-3.763c-0.116-0.252-0.222-0.499-0.343-0.719
				c-0.054-0.117-0.12-0.22-0.184-0.321l-0.241-0.407c-0.421-0.703-0.816-1.416-1.253-2.108c-1.705-2.786-3.579-5.463-5.581-8.019
				c-0.997-1.28-2.043-2.519-3.095-3.731l-1.604-1.766l-0.801-0.841l-0.701-0.715L331.948,262.386z"/>
			<path style="fill:#FF8B7B;" d="M341.704,298.935l-5.71,2.432l4.375,7.188c0,0,4.401-2.081,4.766-6.699L341.704,298.935z"/>
			<polygon style="fill:#FF8B7B;" points="331.744,306.29 337.227,310.95 340.369,308.554 335.994,301.366 			"/>
			<path style="fill:#263238;" d="M328.332,255.969c7.113,1.2,15.733,16.257,15.733,16.257l-12.647,10.28
				c0,0-4.683-2.661-9.052-10.908C318.095,263.536,320.591,254.663,328.332,255.969z"/>
		</g>
		<path style="fill:#263238;" d="M291.492,266.263c-0.415,7.137-0.014,21.794,5.238,48.715l40.194-3.638
			c-0.259-5.695-5.052-22.398-3.246-48.057c0.276-3.925-2.718-7.322-6.65-7.456c-1.981-0.067-4.174-0.087-6.322,0.003
			c-5.158,0.217-12.608,0.726-17.086,1.547c-2.175,0.399-4.291,0.929-6.096,1.439C294.133,259.775,291.697,262.745,291.492,266.263z
			"/>
		<path style="opacity:0.3;" d="M291.824,281.237c0.369,4.762,1.012,10.5,2.056,17.367c7.316-14.657,7.443-27.725,7.643-28.021
			L291.824,281.237z"/>
		<path style="fill:#FF8B7B;" d="M302.962,269.343c-0.438,1.059-0.79,1.861-1.221,2.746c-0.413,0.865-0.839,1.713-1.292,2.546
			c-0.886,1.675-1.845,3.302-2.853,4.899c-0.999,1.602-2.091,3.147-3.191,4.685c-1.137,1.515-2.314,3.002-3.547,4.45
			c-0.63,0.715-1.243,1.438-1.91,2.124l-0.986,1.037c-0.177,0.182-0.299,0.323-0.522,0.539l-0.717,0.668
			c-1.978,1.712-4.276,2.807-6.493,3.394c-2.228,0.599-4.402,0.746-6.478,0.632c-1.039-0.057-2.056-0.184-3.055-0.378
			c-1.025-0.194-1.92-0.436-3.032-0.81l0.917-5.591l2.282-0.387c0.778-0.153,1.541-0.32,2.274-0.522
			c1.466-0.401,2.818-0.919,3.931-1.546c1.116-0.633,1.964-1.353,2.545-2.121l0.209-0.292l0.357-0.462l0.759-0.979
			c0.518-0.639,0.974-1.341,1.477-1.995c1.947-2.681,3.735-5.502,5.41-8.386c0.85-1.435,1.643-2.905,2.425-4.37l1.135-2.204
			l1.024-2.092L302.962,269.343z"/>
		<path style="fill:#FF8B7B;" d="M272.45,290.923l-5.371-3.108l-3.125,7.813c0,0,4.305,2.272,8.219-0.208L272.45,290.923z"/>
		<polygon style="fill:#FF8B7B;" points="260.59,287.37 260.152,294.552 263.954,295.628 267.079,287.815 		"/>
		<path style="fill:#263238;" d="M307.67,263.288c1.553,7.045-7.986,21.335-7.986,21.335l-15.461-8.529
			c0,0,0.712-5.339,6.721-12.481C296.818,256.632,305.98,255.621,307.67,263.288z"/>
		<path style="fill:#407BFF;" d="M303.19,257.328c0,0-4.505,0.551-6.243,1.634c1.808,1.65,5.649,6.67,7.305,11.677l3.691-4.946
			C306.22,260.119,303.19,257.328,303.19,257.328z"/>
		<path style="fill:#407BFF;" d="M305.344,305.012c-0.029-0.51-0.156-2.203-0.577-3.321c-0.109-0.29-0.493-0.339-0.664-0.082
			c-1.686,2.538-3.725,5.078-8.744,5.298c-0.234,0.01-0.408,0.225-0.354,0.453l0.527,2.242c0.04,0.171,0.196,0.295,0.371,0.294
			c5.059-0.052,8.711-3.9,9.349-4.619C305.318,305.203,305.35,305.112,305.344,305.012z"/>
		<path style="fill:#407BFF;" d="M328.674,255.797c0,0-4.128-0.756-6.142-0.385c1.077,2.198,2.544,7.893,2.249,13.158l5.248-3.248
			C330.47,259.505,328.674,255.797,328.674,255.797z"/>
		<g>
			<polygon style="opacity:0.2;" points="311.903,395.979 313.208,405.725 320.726,405.045 319.421,395.299 			"/>
		</g>
		<path style="fill:#FF8B7B;" d="M325.994,236.433c-2.676,7.037-3.837,11.302-9.039,13.753c-7.824,3.687-16.804-2.63-16.558-10.389
			c0.222-6.984,4.56-17.318,13.34-17.779C322.387,221.564,328.67,229.397,325.994,236.433z"/>
		<path style="fill:#263238;" d="M308.588,226.434c-2.704,4.143-4.132,18.993,3.719,23.657c7.852,4.663,17.275-12.496,15.911-17.705
			c-1.364-5.209-5.426-9.117-8.527-9.775S311.685,221.688,308.588,226.434z"/>
		<g>
			<path style="fill:#263238;" d="M310.623,233.289c-0.444,0-0.891-0.144-1.267-0.438c-3.352-2.632-3.517-5.64-3.649-8.057
				c-0.059-1.071-0.114-2.083-0.415-3.059c-0.335-1.084,0.273-2.234,1.357-2.568c1.087-0.334,2.234,0.273,2.568,1.357
				c0.45,1.459,0.525,2.833,0.592,4.046c0.118,2.148,0.195,3.567,2.083,5.049c0.892,0.701,1.048,1.992,0.347,2.885
				C311.835,233.019,311.231,233.289,310.623,233.289z"/>
			<path style="fill:#263238;" d="M319.027,253.232c-0.14,0-0.281-0.015-0.423-0.044c-5.113-1.072-8.628-5.692-8.748-11.498
				c-0.023-1.134,0.877-2.072,2.012-2.096c0.014,0,0.028-0.001,0.043-0.001c1.115,0,2.03,0.893,2.053,2.013
				c0.091,4.448,2.82,7.003,5.483,7.561c1.11,0.233,1.822,1.322,1.589,2.433C320.833,252.567,319.979,253.232,319.027,253.232z"/>
			<path style="fill:#263238;" d="M322.92,252.168c-0.335,0-0.675-0.082-0.989-0.255c-4.576-2.521-6.587-7.968-5.003-13.555
				c0.31-1.092,1.447-1.723,2.537-1.416c1.092,0.31,1.726,1.445,1.416,2.537c-1.214,4.281,0.648,7.521,3.032,8.834
				c0.994,0.548,1.356,1.797,0.809,2.791C324.348,251.784,323.645,252.168,322.92,252.168z"/>
			<path style="fill:#263238;" d="M326.366,249.537c-0.114,0-0.23-0.01-0.347-0.029c-7.109-1.21-9.672-4.899-10.571-7.782
				c-0.338-1.083,0.266-2.234,1.349-2.572c1.083-0.338,2.235,0.266,2.573,1.35c0.821,2.633,3.222,4.254,7.339,4.954
				c1.118,0.191,1.871,1.252,1.68,2.37C328.218,248.829,327.349,249.537,326.366,249.537z"/>
			<path style="fill:#263238;" d="M328.226,246.135c-4.772,0-8.121-1.533-10.201-4.658c-0.629-0.944-0.373-2.22,0.572-2.849
				c0.944-0.629,2.22-0.372,2.848,0.571c1.003,1.508,2.854,3.179,8.368,2.765c1.154-0.107,2.118,0.761,2.204,1.893
				c0.086,1.131-0.761,2.117-1.893,2.203C329.468,246.11,328.835,246.135,328.226,246.135z"/>
			<path style="fill:#263238;" d="M328.715,242.921c-2.147,0-3.73-0.743-5.067-1.37c-1.259-0.591-2.246-1.05-3.66-0.992
				c-1.135,0.093-2.094-0.822-2.148-1.955c-0.053-1.134,0.822-2.096,1.956-2.148c2.417-0.115,4.109,0.677,5.598,1.376
				c1.569,0.736,2.702,1.271,4.707,0.815c1.103-0.25,2.206,0.444,2.456,1.552c0.25,1.107-0.445,2.206-1.552,2.456
				C330.174,242.842,329.415,242.921,328.715,242.921z"/>
			<path style="fill:#263238;" d="M312.76,231.57c-0.619,0-1.232-0.279-1.636-0.811c-3.078-4.042-3.61-9.622-1.422-14.925
				c0.432-1.049,1.631-1.55,2.682-1.116c1.049,0.433,1.548,1.634,1.116,2.683c-1.625,3.938-1.29,8.002,0.893,10.87
				c0.688,0.902,0.513,2.191-0.39,2.879C313.631,231.433,313.194,231.57,312.76,231.57z"/>
			<path style="fill:#263238;" d="M318.728,233.993c-0.382,0-0.768-0.106-1.113-0.329c-2.784-1.8-4.762-4.838-5.427-8.336
				c-0.725-3.813,0.212-7.778,2.639-11.167c0.66-0.923,1.943-1.137,2.866-0.475c0.922,0.66,1.135,1.943,0.475,2.865
				c-2.263,3.162-2.306,6.1-1.943,8.009c0.45,2.364,1.803,4.478,3.621,5.652c0.953,0.616,1.226,1.888,0.61,2.841
				C320.062,233.661,319.402,233.993,318.728,233.993z"/>
			<path style="fill:#263238;" d="M320.45,231.657c-0.303,0-0.611-0.067-0.902-0.21c-3.558-1.742-5.549-5.382-5.072-9.273
				c0.417-3.402,2.727-6.038,5.885-6.716c1.112-0.237,2.202,0.468,2.439,1.578c0.238,1.108-0.468,2.201-1.577,2.439
				c-2.17,0.466-2.591,2.565-2.669,3.197c-0.198,1.616,0.417,3.917,2.801,5.085c1.019,0.499,1.44,1.73,0.941,2.748
				C321.94,231.234,321.21,231.657,320.45,231.657z"/>
			<path style="fill:#263238;" d="M320.454,231.657c-0.714,0-1.408-0.373-1.787-1.037c-2.145-3.765-1.722-6.484-0.989-8.103
				c0.768-1.694,2.658-3.914,7.305-4.866c1.115-0.229,2.197,0.489,2.424,1.601c0.228,1.111-0.489,2.197-1.6,2.425
				c-2.302,0.471-3.86,1.372-4.387,2.536c-0.614,1.354,0.105,3.125,0.816,4.372c0.562,0.986,0.218,2.24-0.768,2.802
				C321.148,231.57,320.798,231.657,320.454,231.657z"/>
			<path style="fill:#263238;" d="M320.83,240.969c-0.368,0-0.74-0.099-1.075-0.306c-0.966-0.595-1.267-1.86-0.672-2.826
				c1.938-3.146,5.646-2.947,8.626-2.789c1.384,0.074,3.107,0.165,3.719-0.226c0.955-0.61,2.226-0.332,2.837,0.623
				c0.611,0.956,0.333,2.227-0.624,2.838c-1.724,1.104-3.975,0.984-6.151,0.867c-2.487-0.131-4.299-0.149-4.909,0.841
				C322.193,240.621,321.52,240.969,320.83,240.969z"/>
			<path style="fill:#263238;" d="M329.366,236.163c-3.86,0-6.041-2.442-7.475-4.048c-0.466-0.523-1.17-1.311-1.464-1.394
				c-0.002,0.003-0.039,0.011-0.104,0.037c-1.049,0.436-2.25-0.065-2.683-1.114c-0.433-1.049,0.066-2.25,1.115-2.683
				c2.956-1.225,4.909,0.969,6.202,2.417c1.748,1.957,3.131,3.506,6.898,2.196c1.074-0.373,2.242,0.195,2.614,1.268
				c0.372,1.071-0.196,2.242-1.267,2.613C331.764,235.955,330.493,236.163,329.366,236.163z"/>
			<path style="fill:#263238;" d="M320.036,232.801c-0.47,0-0.942-0.161-1.329-0.489c-0.865-0.734-0.971-2.03-0.236-2.895
				c2.154-2.536,5.045-1.912,7.368-1.412c2.124,0.46,4.129,0.892,6.316-0.216c1.012-0.511,2.248-0.107,2.76,0.905
				c0.513,1.012,0.107,2.248-0.905,2.761c-3.485,1.764-6.695,1.072-9.038,0.566c-2.335-0.503-2.902-0.495-3.37,0.056
				C321.197,232.555,320.618,232.801,320.036,232.801z"/>
			<path style="fill:#263238;" d="M316.195,226.707c-0.419,0-0.843-0.128-1.207-0.393c-0.918-0.668-1.12-1.953-0.452-2.87
				c1.96-2.691,4.89-2.283,7.243-1.959c2.152,0.299,4.184,0.581,6.282-0.686c0.972-0.584,2.235-0.274,2.82,0.697
				c0.586,0.971,0.275,2.233-0.696,2.82c-3.344,2.018-6.596,1.567-8.97,1.238c-2.366-0.33-2.931-0.278-3.357,0.307
				C317.455,226.414,316.829,226.707,316.195,226.707z"/>
			<path style="fill:#263238;" d="M319.849,229.415c-0.419,0-0.843-0.128-1.208-0.395c-0.917-0.668-1.119-1.952-0.451-2.869
				c1.941-2.665,4.805-2.178,7.106-1.786c2.168,0.37,4.216,0.72,6.279-0.767c0.922-0.664,2.205-0.454,2.867,0.467
				c0.663,0.921,0.454,2.204-0.467,2.867c-3.459,2.492-6.875,1.908-9.37,1.483c-2.208-0.376-2.729-0.35-3.095,0.153
				C321.108,229.122,320.483,229.415,319.849,229.415z"/>
		</g>
		<path style="fill:#FF8B7B;" d="M311.279,235.876c-0.946,1.904-2.633,3.357-4.234,4.096c-2.408,1.111-3.643-0.741-2.999-3.066
			c0.579-2.093,2.53-5.194,4.96-5.34C311.4,231.422,312.36,233.699,311.279,235.876z"/>
		<path style="fill:#407BFF;" d="M366.118,390.126c-0.605,0.756-1.293,1.403-1.829,1.376c-0.188-0.009-0.444-0.104-0.601-0.499
			c-0.088-0.222-0.079-0.459,0.028-0.704c0.517-1.193,3.339-2.314,3.458-2.361c0.069-0.027,0.148-0.009,0.198,0.047
			s0.06,0.136,0.026,0.202C367.173,388.622,366.682,389.421,366.118,390.126z M364.228,390.146
			c-0.078,0.098-0.141,0.197-0.184,0.295c-0.068,0.157-0.076,0.297-0.023,0.43c0.094,0.237,0.209,0.27,0.286,0.274
			c0.6,0.03,1.8-1.452,2.522-2.671C366.113,388.795,364.779,389.457,364.228,390.146z"/>
		<path style="fill:#407BFF;" d="M367.38,388.215c-0.016,0.019-0.035,0.035-0.058,0.047c-0.888,0.456-3.289,0.845-3.869,0.204
			c-0.136-0.15-0.242-0.417,0.026-0.832c0.199-0.307,0.488-0.504,0.858-0.582c1.215-0.257,2.929,0.854,3.001,0.901
			c0.053,0.035,0.084,0.095,0.081,0.159C367.417,388.151,367.403,388.186,367.38,388.215z M363.841,387.742
			c-0.022,0.027-0.043,0.057-0.063,0.087c-0.175,0.271-0.089,0.367-0.061,0.398c0.348,0.384,2.115,0.228,3.132-0.148
			c-0.524-0.295-1.642-0.845-2.439-0.676C364.17,387.453,363.983,387.565,363.841,387.742z"/>
		<polygon style="fill:#FF8B7B;" points="375.926,383.825 371.212,389.716 357.099,379.386 361.813,373.494 		"/>
		<path style="fill:#263238;" d="M367.059,386.932l5.148-6.434c0.193-0.241,0.527-0.316,0.804-0.18l6.168,3.027
			c0.639,0.314,0.824,1.138,0.37,1.686c-1.897,2.289-4.716,5.534-7.05,8.451c-2.729,3.411-0.758,1.328-3.959,5.328
			c-1.935,2.419-4.918,1.133-4.329-0.056c2.68-5.416,2.405-6.891,2.172-10.036C366.334,388.069,366.652,387.441,367.059,386.932z"/>
		<g>
			<polygon style="opacity:0.2;" points="357.104,379.387 365.038,385.197 369.754,379.303 361.82,373.493 			"/>
		</g>
		<path style="fill:#407BFF;" d="M310.989,313.687c0,0,5.528,22.15,16.028,41.606c11.498,21.306,32.559,30.012,32.559,30.012
			l8.006-10.353c0,0-16.889-10.888-21.439-26.977c-6.943-24.552-9.218-36.636-9.218-36.636L310.989,313.687z"/>
		<path style="fill:#263238;" d="M356.14,385.124c-0.034,0.048,4.738,2.496,4.738,2.496l9.034-12.655l-3.611-3.094L356.14,385.124z"
			/>
		<path style="opacity:0.3;" d="M314.072,323.085c-0.125-0.02-0.25-0.029-0.364-0.039c1.792,5.665,4.463,13.302,7.968,21.266
			C322.338,334.888,321.444,324.099,314.072,323.085z"/>
		<path style="fill:#407BFF;" d="M296.731,314.978c0,0-1.897,18.716,0.995,41.558c3.007,23.759,11.794,44.968,11.794,44.968
			l12.513-3.274c0,0-2.919-17.834-4.472-41.295c-1.692-25.577,5.59-44.348,5.59-44.348L296.731,314.978z"/>
		<path style="fill:#263238;" d="M307.098,399.256c-0.058,0.008,1.481,5.147,1.481,5.147l15.385-2.249l-0.269-4.747L307.098,399.256
			z"/>
		<g>
			<path style="fill:#407BFF;" d="M319.899,260.213l-1.786,0.162c-9.373,0.848-16.598,9.234-16.055,18.635l1.276,22.091
				c0.342,5.911,5.444,10.312,11.338,9.778l14.438-1.307c5.894-0.534,10.437-5.807,10.096-11.718l-1.276-22.091
				C337.386,266.363,329.272,259.365,319.899,260.213z"/>
			<path style="opacity:0.3;fill:#263238;" d="M315.781,311.184c-2.605,0-5.083-0.913-7.066-2.623
				c-2.242-1.933-3.572-4.64-3.744-7.621l-1.276-22.093c-0.558-9.663,6.827-18.234,16.462-19.107
				c0.239-0.041,0.465,0.158,0.487,0.406c0.022,0.246-0.159,0.464-0.406,0.486c-9.159,0.829-16.179,8.977-15.648,18.163
				l1.276,22.092c0.158,2.737,1.378,5.221,3.434,6.993c2.055,1.771,4.689,2.61,7.415,2.364c0.241-0.037,0.465,0.158,0.487,0.406
				c0.023,0.246-0.159,0.464-0.406,0.486C316.457,311.169,316.117,311.184,315.781,311.184z"/>
			<g>
				<path style="fill:#407BFF;" d="M326.154,265.841l-1.566,0.142c-8.217,0.744-14.55,8.095-14.074,16.336l1.119,19.365
					c0.299,5.182,4.772,9.039,9.939,8.572l12.656-1.145c5.167-0.468,9.149-5.09,8.85-10.272l-1.119-19.365
					C341.483,271.232,334.37,265.098,326.154,265.841z"/>
				<path style="opacity:0.2;fill:#FFFFFF;" d="M326.154,265.841l-1.566,0.142c-8.217,0.744-14.55,8.095-14.074,16.336l1.119,19.365
					c0.299,5.182,4.772,9.039,9.939,8.572l12.656-1.145c5.167-0.468,9.149-5.09,8.85-10.272l-1.119-19.365
					C341.483,271.232,334.37,265.098,326.154,265.841z"/>
				<path style="fill:#407BFF;" d="M322.617,310.571c-2.297,0-4.482-0.806-6.232-2.314c-1.976-1.704-3.148-4.09-3.3-6.72
					l-1.119-19.365c-0.5-8.648,6.117-16.593,14.45-17.346c0.241-0.038,0.465,0.158,0.487,0.406c0.022,0.246-0.159,0.464-0.406,0.486
					c-7.864,0.712-14.108,8.223-13.635,16.401l1.119,19.366c0.138,2.384,1.2,4.548,2.99,6.092c1.79,1.543,4.084,2.273,6.46,2.06
					l10.452-0.946c0.244-0.029,0.464,0.159,0.487,0.406c0.022,0.246-0.159,0.464-0.406,0.486l-10.452,0.946
					C323.212,310.558,322.913,310.571,322.617,310.571z"/>
			</g>
			<path style="fill:#407BFF;" d="M329.085,273.435l-0.83,0.075c-3.643,0.33-6.587,3.109-7.306,6.566
				c-0.221,1.065,0.598,2.027,1.672,1.929l13.017-1.178c1.074-0.097,1.774-1.196,1.432-2.21
				C335.961,275.325,332.728,273.105,329.085,273.435z"/>
			<path style="fill:#407BFF;" d="M312.903,291.082c-0.229,0-0.425-0.175-0.446-0.408c-0.022-0.246,0.159-0.464,0.406-0.486
				l29.545-2.674c0.245-0.042,0.464,0.158,0.487,0.406c0.022,0.246-0.159,0.464-0.406,0.486l-29.545,2.674
				C312.931,291.082,312.917,291.082,312.903,291.082z"/>
		</g>
	</g>
</g>
</svg>
