<?xml version="1.0" encoding="utf-8"?>
<!-- Generator: Adobe Illustrator 27.5.0, SVG Export Plug-In . SVG Version: 6.00 Build 0)  -->
<svg version="1.1" xmlns="http://www.w3.org/2000/svg" xmlns:xlink="http://www.w3.org/1999/xlink" x="0px" y="0px"
	 viewBox="0 0 500 500" style="enable-background:new 0 0 500 500;" xml:space="preserve">
<g id="Background_Simple">
	<g>
		<g>
			<path style="fill:#92E3A9;" d="M449.205,165.798c2.816-37.488-3.737-78.866-32.382-104.4
				c-25.703-22.912-64.899-27.97-98.594-18.841c-33.695,9.129-62.462,30.638-86.407,55.23
				c-23.944,24.591-43.851,52.521-66.087,78.559c-23.133,27.089-48.883,52.251-69.013,81.482s-34.575,63.741-31.512,98.707
				c1.275,14.556,5.712,29.106,14.617,40.933c10.71,14.225,27.094,23.574,44.018,30.122c31.265,12.097,65.222,15.814,98.701,19.418
				c35.746,3.848,71.492,7.697,107.237,11.545c22.033,2.372,45.473,4.526,65.353-4.918c17.5-8.313,29.704-24.741,36.435-42.385
				c6.731-17.645,8.603-36.62,10.087-55.366C446.785,291.121,449.205,165.798,449.205,165.798z"/>
		</g>
		<g style="opacity:0.7;">
			<path style="fill:#FFFFFF;" d="M449.205,165.619c2.816-37.488-3.737-78.866-32.382-104.4
				c-25.703-22.912-64.899-27.97-98.594-18.841c-33.695,9.129-62.462,30.638-86.407,55.23
				c-23.944,24.591-43.851,52.521-66.087,78.559c-23.133,27.089-48.883,52.251-69.013,81.482s-34.575,63.741-31.512,98.707
				c1.275,14.556,5.712,29.106,14.617,40.933c10.71,14.225,27.094,23.574,44.018,30.122c31.265,12.097,65.222,15.814,98.701,19.418
				c35.746,3.848,71.492,7.697,107.237,11.545c22.033,2.372,45.473,4.526,65.353-4.918c17.5-8.313,29.704-24.741,36.435-42.385
				c6.731-17.645,8.603-36.62,10.087-55.367C446.785,290.943,449.205,165.619,449.205,165.619z"/>
		</g>
	</g>
</g>
<g id="Plant">
	<g>
		<g>
			<g>
				<g>
					<path style="fill:#92E3A9;" d="M255.484,163.749c-0.192,0.156,0.508,1.555-3.066,0.423
						c-8.802-2.788-23.926-8.936-26.825-18.911c-4.139-14.241,14.45-6.329,14.858-13.206c0.408-6.877-21.804-9.197-22.566-19.503
						c-0.762-10.305,13.428-3.201,14.395-8.01c0.967-4.81-16.723-4.539-18.437-15.799c-1.714-11.26,10.042-1.305,9.254-5.997
						c-0.788-4.692-12.147-27.162-3.851-28.243c8.296-1.081,18.357,21.723,23.042,25.472c4.686,3.749,11.943-12.406,16.951-4.303
						c5.008,8.103-8.692,31.494-1.63,37.577c5.26,4.53,5.19-5.659,12.593-2.584C280.259,114.844,270.876,151.205,255.484,163.749z"
						/>
					<g style="opacity:0.2;">
						<path style="fill:#FFFFFF;" d="M255.484,163.749c-0.192,0.156,0.508,1.555-3.066,0.423
							c-8.802-2.788-23.926-8.936-26.825-18.911c-4.139-14.241,14.45-6.329,14.858-13.206c0.408-6.877-21.804-9.197-22.566-19.503
							c-0.762-10.305,13.428-3.201,14.395-8.01c0.967-4.81-16.723-4.539-18.437-15.799c-1.714-11.26,10.042-1.305,9.254-5.997
							c-0.788-4.692-12.147-27.162-3.851-28.243c8.296-1.081,18.357,21.723,23.042,25.472c4.686,3.749,11.943-12.406,16.951-4.303
							c5.008,8.103-8.692,31.494-1.63,37.577c5.26,4.53,5.19-5.659,12.593-2.584C280.259,114.844,270.876,151.205,255.484,163.749z"
							/>
					</g>
				</g>
				<g>
					<g>
						<g>
							<g>
								<g>
									<path style="fill:none;stroke:#5C5C5C;stroke-linecap:round;stroke-linejoin:round;stroke-miterlimit:10;" d="
										M239.918,99.667c0,0,25.227,35.281,11.115,96.56"/>
									<path style="fill:none;stroke:#5C5C5C;stroke-linecap:round;stroke-linejoin:round;stroke-miterlimit:10;" d="
										M232.149,104.962c8.761,1.226,13.14,4.647,13.14,4.647"/>
									<path style="fill:none;stroke:#5C5C5C;stroke-linecap:round;stroke-linejoin:round;stroke-miterlimit:10;" d="
										M250.217,84.126c0,0,5.276,17.241-1.292,34.809"/>
									<path style="fill:none;stroke:#5C5C5C;stroke-linecap:round;stroke-linejoin:round;stroke-miterlimit:10;" d="
										M253.51,137.472c0,0-4.774-9.489-15.707-9.531"/>
									<path style="fill:none;stroke:#5C5C5C;stroke-linecap:round;stroke-linejoin:round;stroke-miterlimit:10;" d="
										M254.961,149.769c0,0,7.056-7.55,9.592-20.892"/>
								</g>
							</g>
						</g>
					</g>
				</g>
			</g>
			<g>
				<path style="fill:#92E3A9;" d="M349.103,56.475c-7.263-4.151-25.233,13.121-30.991,14.809
					c-5.758,1.688-6.263-11.069-13.973-5.475c-7.71,5.594-3.923,32.435-12.766,35.379c-6.586,2.193-3.08-9.761-10.667-7.173
					c-13.282,4.531-7.61,55.941-3.874,56.251c9.202,0.764,25.485-6.786,32.195-14.714c6.809-8.046-11.161-3.933-8.925-10.45
					c2.235-6.516,23.663-0.225,28.283-9.468c4.62-9.244-11.206-8.062-10.273-12.878c0.933-4.816,17.121-2.79,22.984-12.555
					c5.863-9.765-8.794-5.021-6.283-9.063C337.323,77.096,356.366,60.626,349.103,56.475"/>
				<g>
					<path style="opacity:0.1;" d="M349.103,56.475c-7.263-4.151-25.233,13.121-30.991,14.809
						c-5.758,1.688-6.263-11.069-13.973-5.475c-7.71,5.594-3.923,32.435-12.766,35.379c-6.586,2.193-3.08-9.761-10.667-7.173
						c-13.282,4.531-7.61,55.941-3.874,56.251c9.202,0.764,25.485-6.786,32.195-14.714c6.809-8.046-11.161-3.933-8.925-10.45
						c2.235-6.516,23.663-0.225,28.283-9.468c4.62-9.244-11.206-8.062-10.273-12.878c0.933-4.816,17.121-2.79,22.984-12.555
						c5.863-9.765-8.794-5.021-6.283-9.063C337.323,77.096,356.366,60.626,349.103,56.475"/>
					<g>
						<path style="fill:none;stroke:#5C5C5C;stroke-linecap:round;stroke-linejoin:round;stroke-miterlimit:10;" d="M324.073,81.725
							c0,0-42.5,29.026-59.398,103.983"/>
						<path style="fill:none;stroke:#5C5C5C;stroke-linecap:round;stroke-linejoin:round;stroke-miterlimit:10;" d="M338.456,93.348
							c-14.708-5.413-24.557-2.573-25.156-2.393l-0.013-0.005c-0.018,0.008-0.018,0.008-0.018,0.008"/>
						<path style="fill:none;stroke:#5C5C5C;stroke-linecap:round;stroke-linejoin:round;stroke-miterlimit:10;" d="
							M304.747,100.226c0.304-12.705,4.721-23.801,8.62-31.184"/>
						<path style="fill:none;stroke:#5C5C5C;stroke-linecap:round;stroke-linejoin:round;stroke-miterlimit:10;" d="
							M290.873,119.735c0,0,9.907-8.972,22.558-4.462"/>
						<path style="fill:none;stroke:#5C5C5C;stroke-linecap:round;stroke-linejoin:round;stroke-miterlimit:10;" d="
							M283.504,133.337c0,0-4.657-11.665-1.412-28.137"/>
					</g>
				</g>
			</g>
		</g>
		<g>
			<g>
				<g>
					<path style="fill:#92E3A9;" d="M118.332,360.932c-0.2,0.145,0.422,1.581-3.084,0.254c-8.635-3.268-23.398-10.238-25.744-20.357
						c-3.349-14.447,14.776-5.525,15.562-12.37c0.785-6.844-21.266-10.382-21.46-20.714c-0.194-10.332,13.584-2.458,14.814-7.207
						c1.23-4.749-16.448-5.452-17.54-16.789c-1.092-11.337,10.099-0.75,9.57-5.48c-0.528-4.729-10.635-27.789-2.293-28.412
						c8.342-0.623,17.135,22.7,21.607,26.7c4.472,4.001,12.608-11.73,17.162-3.364c4.554,8.366-10.41,30.968-3.694,37.43
						c5.003,4.813,5.493-5.365,12.716-1.887C145.759,313.464,134.391,349.254,118.332,360.932z"/>
					<g style="opacity:0.1;">
						<path d="M118.332,360.932c-0.2,0.145,0.422,1.581-3.084,0.254c-8.635-3.268-23.398-10.238-25.744-20.357
							c-3.349-14.447,14.776-5.525,15.562-12.37c0.785-6.844-21.266-10.382-21.46-20.714c-0.194-10.332,13.584-2.458,14.814-7.207
							c1.23-4.749-16.448-5.452-17.54-16.789c-1.092-11.337,10.099-0.75,9.57-5.48c-0.528-4.729-10.635-27.789-2.293-28.412
							c8.342-0.623,17.135,22.7,21.607,26.7c4.472,4.001,12.608-11.73,17.162-3.364c4.554,8.366-10.41,30.968-3.694,37.43
							c5.003,4.813,5.493-5.365,12.716-1.887C145.759,313.464,134.391,349.254,118.332,360.932z"/>
					</g>
				</g>
				<g>
					<g>
						<g>
							<g>
								<g>
									<path style="fill:none;stroke:#5C5C5C;stroke-linecap:round;stroke-linejoin:round;stroke-miterlimit:10;" d="
										M106.314,296.091c0,0,23.249,36.615,5.788,97.025"/>
									<path style="fill:none;stroke:#5C5C5C;stroke-linecap:round;stroke-linejoin:round;stroke-miterlimit:10;" d="
										M98.265,300.951c8.68,1.706,12.865,5.363,12.865,5.363"/>
									<path style="fill:none;stroke:#5C5C5C;stroke-linecap:round;stroke-linejoin:round;stroke-miterlimit:10;" d="
										M117.451,281.14c0,0,4.32,17.505-3.204,34.685"/>
									<path style="fill:none;stroke:#5C5C5C;stroke-linecap:round;stroke-linejoin:round;stroke-miterlimit:10;" d="
										M117.806,334.587c0,0-4.245-9.737-15.159-10.38"/>
									<path style="fill:none;stroke:#5C5C5C;stroke-linecap:round;stroke-linejoin:round;stroke-miterlimit:10;" d="
										M118.579,346.945c0,0,7.46-7.151,10.726-20.333"/>
								</g>
							</g>
						</g>
					</g>
				</g>
			</g>
			<g>
				<g>
					<path style="fill:#92E3A9;" d="M122.022,414.958c-4.557,4.226-16.318,6.989-23.165,5.576c-6.948-1.434,4.279-6.718,0.388-9.242
						c-3.89-2.524-12.628,9.708-18.914,6.73c-6.286-2.978,2.588-8.924,0.094-11.089c-2.494-2.164-10.228,5.632-17.389,2.895
						c-7.161-2.738,2.573-6.312-0.436-7.41c-3.009-1.098-19.936-1.914-17.813-7.129c2.123-5.215,18.815-3.529,22.566-5.026
						c3.751-1.497-1.279-8.464,5.128-8.703c6.407-0.239,15.548,15.552,21.455,13.439c4.4-1.574-2.422-6.45,2.672-8.23
						C105.525,383.654,123.872,413.242,122.022,414.958z"/>
				</g>
				<g>
					<path style="fill:none;stroke:#5C5C5C;stroke-linecap:round;stroke-linejoin:round;stroke-miterlimit:10;" d="M64.508,395.566
						c0,0,43.361,2.034,74.94,34.739"/>
					<path style="fill:none;stroke:#5C5C5C;stroke-linecap:round;stroke-linejoin:round;stroke-miterlimit:10;" d="M73.317,406.572
						c5.154-4.785,10.992-6.555,11.422-6.722c0.025-0.002,0.035-0.008,0.035-0.008"/>
					<path style="fill:none;stroke:#5C5C5C;stroke-linecap:round;stroke-linejoin:round;stroke-miterlimit:10;" d="M71.271,386.816
						c0,0,12.499,3.529,20.566,14.452"/>
					<path style="fill:none;stroke:#5C5C5C;stroke-linecap:round;stroke-linejoin:round;stroke-miterlimit:10;" d="M100.256,404.014
						c0,0-7.281-0.487-11.657,6.132"/>
					<path style="fill:none;stroke:#5C5C5C;stroke-linecap:round;stroke-linejoin:round;stroke-miterlimit:10;" d="M112.861,409.664
						c0,0-1.813-7.292-8.898-14.083"/>
				</g>
			</g>
			<g>
				<path style="fill:#92E3A9;" d="M37.509,301.836c8.048-4.6,27.961,14.54,34.341,16.411c6.381,1.871,6.94-12.266,15.484-6.067
					c8.544,6.198,4.347,35.942,14.147,39.204c7.298,2.43,3.413-10.817,11.821-7.949c14.717,5.021,8.432,61.989,4.293,62.333
					c-10.196,0.847-28.241-7.519-35.676-16.305c-7.545-8.915,12.367-4.358,9.89-11.579c-2.477-7.221-26.222-0.249-31.341-10.492
					c-5.119-10.243,12.418-8.934,11.384-14.271c-1.033-5.337-18.972-3.092-25.469-13.912c-6.497-10.82,9.745-5.564,6.962-10.043
					C50.563,324.687,29.461,306.436,37.509,301.836"/>
				<g>
					<path style="opacity:0.3;fill:#FFFFFF;" d="M37.509,301.836c8.048-4.6,27.961,14.54,34.341,16.411
						c6.381,1.871,6.94-12.266,15.484-6.067c8.544,6.198,4.347,35.942,14.147,39.204c7.298,2.43,3.413-10.817,11.821-7.949
						c14.717,5.021,8.432,61.989,4.293,62.333c-10.196,0.847-28.241-7.519-35.676-16.305c-7.545-8.915,12.367-4.358,9.89-11.579
						c-2.477-7.221-26.222-0.249-31.341-10.492c-5.119-10.243,12.418-8.934,11.384-14.271c-1.033-5.337-18.972-3.092-25.469-13.912
						c-6.497-10.82,9.745-5.564,6.962-10.043C50.563,324.687,29.461,306.436,37.509,301.836"/>
					<g>
						<path style="fill:none;stroke:#5C5C5C;stroke-linecap:round;stroke-linejoin:round;stroke-miterlimit:10;" d="M65.245,329.815
							c0,0,47.095,32.164,65.82,115.224"/>
						<path style="fill:none;stroke:#5C5C5C;stroke-linecap:round;stroke-linejoin:round;stroke-miterlimit:10;" d="M49.308,342.695
							c16.298-5.998,27.212-2.852,27.875-2.652l0.014-0.005c0.02,0.009,0.02,0.009,0.02,0.009"/>
						<path style="fill:none;stroke:#5C5C5C;stroke-linecap:round;stroke-linejoin:round;stroke-miterlimit:10;" d="M86.66,350.317
							c-0.337-14.078-5.231-26.374-9.552-34.555"/>
						<path style="fill:none;stroke:#5C5C5C;stroke-linecap:round;stroke-linejoin:round;stroke-miterlimit:10;" d="
							M102.035,371.935c0,0-10.978-9.942-24.997-4.945"/>
						<path style="fill:none;stroke:#5C5C5C;stroke-linecap:round;stroke-linejoin:round;stroke-miterlimit:10;" d="M110.2,387.008
							c0,0,5.161-12.926,1.565-31.179"/>
					</g>
				</g>
			</g>
		</g>
	</g>
</g>
<g id="File">
	<g>
		<rect x="120.485" y="130.333" style="fill:#263238;" width="219.765" height="323.084"/>
		<path style="fill:#BFBFBF;stroke:#263238;stroke-linecap:round;stroke-linejoin:round;" d="M331.34,449.355H107.957
			l10.822-128.202c1.875-22.211,2.597-44.505,2.162-66.792l-2.499-128.09h218.607l1.033,157.115
			c0.083,12.668-0.171,25.335-0.762,37.99L331.34,449.355z"/>
		<g>
			<path style="fill:#FFFFFF;stroke:#263238;stroke-linecap:round;stroke-linejoin:round;stroke-miterlimit:10;" d="
				M322.042,445.002H96.267l6.919-35.947c14.736-87.905,18.406-126.835,16.366-240.752l-2.317-46.381h214.141l2.524,43.794
				C339.316,356.347,322.042,445.002,322.042,445.002z"/>
		</g>
		<g>
			<g>
				<g>
					<g>
						<path style="fill:#263238;" d="M129.911,138.215c-3.213,0-5.826-2.614-5.826-5.827c0-3.213,2.614-5.826,5.826-5.826
							c0.48,0,0.869,0.389,0.869,0.869c0,0.48-0.389,0.869-0.869,0.869c-2.254,0-4.088,1.834-4.088,4.088
							c0,2.254,1.834,4.088,4.088,4.088c2.254,0,4.088-1.834,4.088-4.088c0-0.48,0.389-0.869,0.869-0.869
							c0.48,0,0.869,0.389,0.869,0.869C135.738,135.601,133.124,138.215,129.911,138.215z"/>
					</g>
					<g>
						<path style="fill:#BFBFBF;stroke:#263238;stroke-linecap:round;stroke-linejoin:round;stroke-miterlimit:10;" d="
							M129.773,135.807c-5.326,0-5.617-11.505-5.621-13.811v-0.074c0-2.319,0.271-13.885,5.621-13.885
							c5.335,0,5.722,12.487,5.748,13.911l-4.635,0.087c-0.066-3.524-0.608-6.26-1.149-7.922c-0.488,1.609-0.949,4.272-0.949,7.809
							v0.07c0.007,3.582,0.486,6.262,0.983,7.848c0.054-0.169,0.109-0.354,0.164-0.558l0.367-1.26l3.231,0.942
							c0.674,0.196,1.061,0.902,0.864,1.575l0,0C133.45,134.022,131.89,135.807,129.773,135.807z"/>
					</g>
					<g>
						<path style="fill:#263238;" d="M134.869,133.258c-0.48,0-0.869-0.389-0.869-0.869c0-2.254-1.834-4.088-4.088-4.088
							c-0.48,0-0.869-0.389-0.869-0.869c0-0.48,0.389-0.869,0.869-0.869c3.213,0,5.827,2.614,5.827,5.826
							C135.738,132.869,135.349,133.258,134.869,133.258z"/>
					</g>
				</g>
				<g>
					<g>
						<path style="fill:#263238;" d="M157.383,138.215c-3.213,0-5.827-2.614-5.827-5.827c0-3.213,2.614-5.826,5.827-5.826
							c0.48,0,0.869,0.389,0.869,0.869c0,0.48-0.389,0.869-0.869,0.869c-2.254,0-4.088,1.834-4.088,4.088
							c0,2.254,1.834,4.088,4.088,4.088c2.254,0,4.088-1.834,4.088-4.088c0-0.48,0.389-0.869,0.869-0.869
							c0.48,0,0.869,0.389,0.869,0.869C163.21,135.601,160.596,138.215,157.383,138.215z"/>
					</g>
					<g>
						<path style="fill:#BFBFBF;stroke:#263238;stroke-linecap:round;stroke-linejoin:round;stroke-miterlimit:10;" d="
							M157.245,135.807c-5.326,0-5.617-11.505-5.621-13.811v-0.074c0-2.319,0.271-13.885,5.621-13.885
							c5.335,0,5.722,12.487,5.748,13.911l-4.635,0.087c-0.066-3.524-0.608-6.26-1.148-7.922c-0.488,1.609-0.949,4.272-0.949,7.809
							v0.07c0.007,3.582,0.486,6.262,0.983,7.848c0.054-0.169,0.109-0.354,0.164-0.558l0.367-1.26l3.231,0.942
							c0.674,0.196,1.061,0.902,0.864,1.575l0,0C160.921,134.022,159.362,135.807,157.245,135.807z"/>
					</g>
					<g>
						<path style="fill:#263238;" d="M162.34,133.258c-0.48,0-0.869-0.389-0.869-0.869c0-2.254-1.834-4.088-4.088-4.088
							c-0.48,0-0.869-0.389-0.869-0.869c0-0.48,0.389-0.869,0.869-0.869c3.213,0,5.826,2.614,5.826,5.826
							C163.21,132.869,162.82,133.258,162.34,133.258z"/>
					</g>
				</g>
				<g>
					<g>
						<path style="fill:#263238;" d="M184.855,138.215c-3.213,0-5.827-2.614-5.827-5.827c0-3.213,2.614-5.826,5.827-5.826
							c0.48,0,0.869,0.389,0.869,0.869c0,0.48-0.389,0.869-0.869,0.869c-2.254,0-4.088,1.834-4.088,4.088
							c0,2.254,1.834,4.088,4.088,4.088c2.254,0,4.088-1.834,4.088-4.088c0-0.48,0.389-0.869,0.869-0.869
							c0.48,0,0.869,0.389,0.869,0.869C190.681,135.601,188.067,138.215,184.855,138.215z"/>
					</g>
					<g>
						<path style="fill:#BFBFBF;stroke:#263238;stroke-linecap:round;stroke-linejoin:round;stroke-miterlimit:10;" d="
							M184.716,135.807c-5.326,0-5.617-11.505-5.621-13.811v-0.074c0-2.319,0.271-13.885,5.621-13.885
							c5.335,0,5.722,12.487,5.748,13.911l-4.635,0.087c-0.066-3.524-0.608-6.26-1.149-7.922c-0.488,1.609-0.949,4.272-0.949,7.809
							v0.07c0.007,3.582,0.486,6.262,0.983,7.848c0.054-0.169,0.109-0.354,0.164-0.558l0.367-1.26l3.231,0.942
							c0.674,0.196,1.061,0.902,0.864,1.575l0,0C188.393,134.022,186.833,135.807,184.716,135.807z"/>
					</g>
					<g>
						<path style="fill:#263238;" d="M189.812,133.258c-0.48,0-0.869-0.389-0.869-0.869c0-2.254-1.834-4.088-4.088-4.088
							c-0.48,0-0.869-0.389-0.869-0.869c0-0.48,0.389-0.869,0.869-0.869c3.213,0,5.827,2.614,5.827,5.826
							C190.681,132.869,190.292,133.258,189.812,133.258z"/>
					</g>
				</g>
				<g>
					<g>
						<path style="fill:#263238;" d="M212.327,138.215c-3.213,0-5.827-2.614-5.827-5.827c0-3.213,2.614-5.826,5.827-5.826
							c0.48,0,0.869,0.389,0.869,0.869c0,0.48-0.389,0.869-0.869,0.869c-2.254,0-4.088,1.834-4.088,4.088
							c0,2.254,1.834,4.088,4.088,4.088c2.254,0,4.088-1.834,4.088-4.088c0-0.48,0.389-0.869,0.869-0.869
							c0.48,0,0.869,0.389,0.869,0.869C218.153,135.601,215.539,138.215,212.327,138.215z"/>
					</g>
					<g>
						<path style="fill:#BFBFBF;stroke:#263238;stroke-linecap:round;stroke-linejoin:round;stroke-miterlimit:10;" d="
							M212.188,135.807c-5.326,0-5.617-11.505-5.621-13.811v-0.074c0-2.319,0.271-13.885,5.621-13.885
							c5.335,0,5.722,12.487,5.748,13.911l-4.635,0.087c-0.066-3.524-0.608-6.26-1.148-7.922c-0.488,1.609-0.949,4.272-0.949,7.809
							v0.07c0.007,3.582,0.486,6.262,0.983,7.848c0.054-0.169,0.109-0.354,0.164-0.558l0.367-1.26l3.231,0.942
							c0.674,0.196,1.061,0.902,0.864,1.575l0,0C215.865,134.022,214.305,135.807,212.188,135.807z"/>
					</g>
					<g>
						<path style="fill:#263238;" d="M217.284,133.258c-0.48,0-0.869-0.389-0.869-0.869c0-2.254-1.833-4.088-4.088-4.088
							c-0.48,0-0.869-0.389-0.869-0.869c0-0.48,0.389-0.869,0.869-0.869c3.213,0,5.826,2.614,5.826,5.826
							C218.153,132.869,217.763,133.258,217.284,133.258z"/>
					</g>
				</g>
			</g>
			<g>
				<g>
					<g>
						<path style="fill:#263238;" d="M239.627,138.215c-3.213,0-5.826-2.614-5.826-5.827c0-3.213,2.614-5.826,5.826-5.826
							c0.48,0,0.869,0.389,0.869,0.869c0,0.48-0.389,0.869-0.869,0.869c-2.254,0-4.088,1.834-4.088,4.088
							c0,2.254,1.834,4.088,4.088,4.088c2.254,0,4.088-1.834,4.088-4.088c0-0.48,0.389-0.869,0.869-0.869
							c0.48,0,0.869,0.389,0.869,0.869C245.454,135.601,242.84,138.215,239.627,138.215z"/>
					</g>
					<g>
						<path style="fill:#BFBFBF;stroke:#263238;stroke-linecap:round;stroke-linejoin:round;stroke-miterlimit:10;" d="
							M239.489,135.807c-5.326,0-5.617-11.505-5.621-13.811v-0.074c0-2.319,0.271-13.885,5.621-13.885
							c5.335,0,5.722,12.487,5.748,13.911l-4.635,0.087c-0.066-3.524-0.608-6.26-1.148-7.922c-0.488,1.609-0.949,4.272-0.949,7.809
							v0.07c0.007,3.582,0.486,6.262,0.983,7.848c0.054-0.169,0.109-0.354,0.164-0.558l0.367-1.26l3.231,0.942
							c0.674,0.196,1.061,0.902,0.864,1.575l0,0C243.165,134.022,241.606,135.807,239.489,135.807z"/>
					</g>
					<g>
						<path style="fill:#263238;" d="M244.584,133.258c-0.48,0-0.869-0.389-0.869-0.869c0-2.254-1.834-4.088-4.088-4.088
							c-0.48,0-0.869-0.389-0.869-0.869c0-0.48,0.389-0.869,0.869-0.869c3.213,0,5.827,2.614,5.827,5.826
							C245.454,132.869,245.065,133.258,244.584,133.258z"/>
					</g>
				</g>
				<g>
					<g>
						<path style="fill:#263238;" d="M267.099,138.215c-3.213,0-5.827-2.614-5.827-5.827c0-3.213,2.614-5.826,5.827-5.826
							c0.48,0,0.869,0.389,0.869,0.869c0,0.48-0.389,0.869-0.869,0.869c-2.254,0-4.088,1.834-4.088,4.088
							c0,2.254,1.834,4.088,4.088,4.088c2.254,0,4.088-1.834,4.088-4.088c0-0.48,0.389-0.869,0.869-0.869s0.869,0.389,0.869,0.869
							C272.925,135.601,270.311,138.215,267.099,138.215z"/>
					</g>
					<g>
						<path style="fill:#BFBFBF;stroke:#263238;stroke-linecap:round;stroke-linejoin:round;stroke-miterlimit:10;" d="
							M266.96,135.807c-5.326,0-5.617-11.505-5.621-13.811v-0.074c0-2.319,0.271-13.885,5.621-13.885
							c5.335,0,5.722,12.487,5.748,13.911l-4.635,0.087c-0.066-3.524-0.608-6.26-1.148-7.922c-0.488,1.609-0.949,4.272-0.949,7.809
							v0.07c0.007,3.582,0.487,6.262,0.983,7.848c0.054-0.169,0.109-0.354,0.164-0.558l0.367-1.26l3.231,0.942
							c0.674,0.196,1.061,0.902,0.864,1.575l0,0C270.637,134.022,269.077,135.807,266.96,135.807z"/>
					</g>
					<g>
						<path style="fill:#263238;" d="M272.056,133.258c-0.48,0-0.869-0.389-0.869-0.869c0-2.254-1.834-4.088-4.088-4.088
							c-0.48,0-0.869-0.389-0.869-0.869c0-0.48,0.389-0.869,0.869-0.869c3.213,0,5.826,2.614,5.826,5.826
							C272.925,132.869,272.536,133.258,272.056,133.258z"/>
					</g>
				</g>
				<g>
					<g>
						<path style="fill:#263238;" d="M294.57,138.215c-3.213,0-5.827-2.614-5.827-5.827c0-3.213,2.614-5.826,5.827-5.826
							c0.48,0,0.869,0.389,0.869,0.869c0,0.48-0.389,0.869-0.869,0.869c-2.254,0-4.088,1.834-4.088,4.088
							c0,2.254,1.834,4.088,4.088,4.088c2.254,0,4.088-1.834,4.088-4.088c0-0.48,0.389-0.869,0.869-0.869s0.869,0.389,0.869,0.869
							C300.397,135.601,297.783,138.215,294.57,138.215z"/>
					</g>
					<g>
						<path style="fill:#BFBFBF;stroke:#263238;stroke-linecap:round;stroke-linejoin:round;stroke-miterlimit:10;" d="
							M294.432,135.807c-5.326,0-5.617-11.505-5.621-13.811v-0.074c0-2.319,0.271-13.885,5.621-13.885
							c5.335,0,5.722,12.487,5.748,13.911l-4.635,0.087c-0.066-3.524-0.608-6.26-1.149-7.922c-0.488,1.609-0.949,4.272-0.949,7.809
							v0.07c0.007,3.582,0.486,6.262,0.983,7.848c0.054-0.169,0.109-0.354,0.164-0.558l0.367-1.26l3.231,0.942
							c0.674,0.196,1.061,0.902,0.864,1.575l0,0C298.109,134.022,296.549,135.807,294.432,135.807z"/>
					</g>
					<g>
						<path style="fill:#263238;" d="M299.528,133.258c-0.48,0-0.869-0.389-0.869-0.869c0-2.254-1.834-4.088-4.088-4.088
							c-0.48,0-0.869-0.389-0.869-0.869c0-0.48,0.389-0.869,0.869-0.869c3.213,0,5.827,2.614,5.827,5.826
							C300.397,132.869,300.008,133.258,299.528,133.258z"/>
					</g>
				</g>
				<g>
					<g>
						<path style="fill:#263238;" d="M322.042,138.215c-3.213,0-5.827-2.614-5.827-5.827c0-3.213,2.614-5.826,5.827-5.826
							c0.48,0,0.869,0.389,0.869,0.869c0,0.48-0.389,0.869-0.869,0.869c-2.254,0-4.088,1.834-4.088,4.088
							c0,2.254,1.834,4.088,4.088,4.088c2.254,0,4.088-1.834,4.088-4.088c0-0.48,0.389-0.869,0.869-0.869
							c0.48,0,0.869,0.389,0.869,0.869C327.868,135.601,325.255,138.215,322.042,138.215z"/>
					</g>
					<g>
						<path style="fill:#BFBFBF;stroke:#263238;stroke-linecap:round;stroke-linejoin:round;stroke-miterlimit:10;" d="
							M321.904,135.807c-5.326,0-5.617-11.505-5.621-13.811v-0.074c0-2.319,0.271-13.885,5.621-13.885
							c5.335,0,5.722,12.487,5.748,13.911l-4.635,0.087c-0.066-3.524-0.608-6.26-1.148-7.922c-0.488,1.609-0.949,4.272-0.949,7.809
							v0.07c0.006,3.582,0.486,6.262,0.983,7.848c0.054-0.169,0.109-0.354,0.164-0.558l0.367-1.26l3.231,0.942
							c0.674,0.196,1.061,0.902,0.864,1.575l0,0C325.581,134.022,324.021,135.807,321.904,135.807z"/>
					</g>
					<g>
						<path style="fill:#263238;" d="M326.999,133.258c-0.48,0-0.869-0.389-0.869-0.869c0-2.254-1.834-4.088-4.088-4.088
							c-0.48,0-0.869-0.389-0.869-0.869c0-0.48,0.389-0.869,0.869-0.869c3.213,0,5.826,2.614,5.826,5.826
							C327.868,132.869,327.479,133.258,326.999,133.258z"/>
					</g>
				</g>
			</g>
		</g>
	</g>
</g>
<g id="Personal_Data">
	<g>
		<g>
			<g>
				<g>
					<rect x="269.761" y="185.09" style="fill:#BFBFBF;" width="54.149" height="69.096"/>
					<path style="fill:#263238;" d="M320.319,254.431h-46.967l0.003-0.02l0.986-5.682v-1.173c0-4.611,1.023-9.164,2.992-13.333
						c-0.014-0.082-0.017-0.122-0.017-0.122l11.789-3.2c0.303-1.251,0.592-2.493,0.932-2.833c0.306-0.31,1.309-0.704,2.135-0.993
						v-2.156c-0.84-1.33-1.554-2.907-2.098-4.574c-0.139,0.003-0.282-0.027-0.411-0.082c-0.262-0.105-0.48-0.292-0.694-0.476
						c-0.507-0.439-1.017-0.891-1.404-1.442c-0.388-0.554-0.646-1.221-0.595-1.891c0.041-0.547,0.105-1.447,0.391-1.91
						c0.31-0.5,1.048-0.808,1.052-0.808c0,0,0.102-1.135-0.029-2.356c-1.468-13.634,17.893-17.346,18.136,0.49
						c0.009,0.667,0.047,1.513,0.047,1.513s0.755,0.314,0.933,1.027c0.132,0.529,0.251,1.496,0.295,2.043
						c0.051,0.67-0.211,1.336-0.595,1.891c-0.388,0.551-0.898,1.003-1.408,1.442c-0.214,0.184-0.432,0.371-0.69,0.476
						c-0.173,0.071-0.364,0.095-0.544,0.065c-0.629,1.928-1.483,3.744-2.499,5.189v1.976c1.411,0.408,2.737,1.173,2.822,2.527
						c0.014,0.184,0.041,0.391,0.082,0.615c4.397,1.054,11.249,2.999,11.249,2.999l0.088,0.466c0.993,2.091,1.744,4.278,2.248,6.522
						c0.507,2.244,0.765,4.543,0.765,6.855l1.003,6.934L320.319,254.431z"/>
				</g>
				<g>
					<g>
						<line style="fill:none;stroke:#263238;stroke-miterlimit:10;" x1="313.431" y1="179.028" x2="324.521" y2="179.028"/>
						<line style="fill:none;stroke:#263238;stroke-miterlimit:10;" x1="301.891" y1="179.028" x2="308.574" y2="179.028"/>
						<line style="fill:none;stroke:#263238;stroke-miterlimit:10;" x1="129.911" y1="179.028" x2="296.835" y2="179.028"/>
						<g>
							<path style="fill:none;stroke:#263238;stroke-miterlimit:10;" d="M242.729,403.802c2.945,0,5.889,0,8.833,0"/>
							<path style="fill:none;stroke:#263238;stroke-miterlimit:10;" d="M204.565,403.802c10.572,0,21.145,0,31.717,0"/>
							<path style="fill:none;stroke:#263238;stroke-miterlimit:10;" d="M212.706,424.216C225,424,236,424,248.236,424.216"/>
							<path style="fill:none;stroke:#263238;stroke-miterlimit:10;" d="M201.238,424.216c1.674,0,3.348,0,5.023,0"/>
						</g>
						<g>
							<path style="fill:none;stroke:#263238;stroke-miterlimit:10;" d="M252.123,241.081c2.067,0,4.134,0,6.202,0"/>
							<path style="fill:none;stroke:#263238;stroke-miterlimit:10;" d="M241.542,241.056c1.359,0.007,2.718,0.016,4.077,0.025"/>
							<path style="fill:none;stroke:#263238;stroke-miterlimit:10;" d="M211.326,241.081c7.833-0.055,15.667-0.073,23.5-0.053"/>
							<path style="fill:none;stroke:#263238;stroke-miterlimit:10;" d="M244.668,261.495c4.552,0,9.104,0,13.656,0"/>
							<path style="fill:none;stroke:#263238;stroke-miterlimit:10;" d="M211.326,261.495c8.877,0,17.754,0,26.632,0"/>
							<path style="fill:none;stroke:#263238;stroke-miterlimit:10;" d="M222.794,281.908C235,282,246,282,258.324,281.908"/>
							<path style="fill:none;stroke:#263238;stroke-miterlimit:10;" d="M211.326,281.908c1.6,0,3.199,0,4.799,0"/>
							<line style="fill:none;stroke:#263238;stroke-miterlimit:10;" x1="211.326" y1="302.322" x2="258.324" y2="302.322"/>
							<path style="fill:none;stroke:#263238;stroke-miterlimit:10;" d="M232.941,322.903c8.461,0.074,16.923,0.014,25.383-0.167"/>
							<path style="fill:none;stroke:#263238;stroke-miterlimit:10;" d="M222.189,322.735c1.339,0.03,2.679,0.056,4.019,0.08"/>
							<path style="fill:none;stroke:#263238;stroke-miterlimit:10;" d="M211.326,322.735c1.455,0,2.909,0,4.364,0"/>
							<path style="fill:none;stroke:#263238;stroke-miterlimit:10;" d="M221.882,342.562C234,343,245,343,257.107,342.562"/>
							<path style="fill:none;stroke:#263238;stroke-miterlimit:10;" d="M210.109,342.562c1.75,0,3.5,0,5.25,0"/>
							<path style="fill:none;stroke:#263238;stroke-miterlimit:10;" d="M249.298,362.975c2.233,0,4.467,0,6.7,0"/>
							<path style="fill:none;stroke:#263238;stroke-miterlimit:10;" d="M209,362.975c11,0.025,23,0.025,33.978,0"/>
							<path style="fill:none;stroke:#263238;stroke-miterlimit:10;" d="M218.555,383.389C231,383,242,383,253.78,383.389"/>
							<path style="fill:none;stroke:#263238;stroke-miterlimit:10;" d="M206.783,383.389c1.75,0,3.5,0,5.25,0"/>
						</g>
					</g>
				</g>
				<line style="fill:none;stroke:#263238;stroke-miterlimit:10;" x1="267.507" y1="424.216" x2="314.504" y2="424.216"/>
				<g>
					<g>
						<path style="fill:none;stroke:#92E3A9;stroke-linecap:round;stroke-linejoin:round;stroke-miterlimit:10;" d="
							M274.414,403.685c-0.509,6.366-0.08,20.86,15.162,23.018c6.845,0.969,15.007-3.501,17.412-9.659
							c2.902-7.43,2.381-15.605,0.094-21.757c-2.245-6.041-10.268-15.573-18.779-12.595
							C279.121,385.907,275.038,395.889,274.414,403.685z"/>
					</g>
					<g>
						<g>
							<path style="fill:none;stroke:#92E3A9;stroke-linecap:round;stroke-linejoin:round;stroke-miterlimit:10;" d="
								M277.826,413.898c-0.959-2.753-1.445-5.958-1.445-9.526c0-4.412,1.57-8.926,4.42-12.711"/>
						</g>
						<g>
							<path style="fill:none;stroke:#92E3A9;stroke-linecap:round;stroke-linejoin:round;stroke-miterlimit:10;" d="
								M287.682,423.539c-3.823-0.955-6.752-3.304-8.703-6.982"/>
						</g>
						<g>
							<path style="fill:none;stroke:#92E3A9;stroke-linecap:round;stroke-linejoin:round;stroke-miterlimit:10;" d="
								M306.569,410.576c-1.58,8.789-6.711,13.434-14.838,13.434"/>
						</g>
						<g>
							<path style="fill:none;stroke:#92E3A9;stroke-linecap:round;stroke-linejoin:round;stroke-miterlimit:10;" d="
								M304.423,394.428c1.739,3.143,2.659,6.581,2.659,9.944c0,1.161-0.048,2.297-0.141,3.374"/>
						</g>
						<g>
							<path style="fill:none;stroke:#92E3A9;stroke-linecap:round;stroke-linejoin:round;stroke-miterlimit:10;" d="
								M297.204,386.591c2.287,1.44,4.474,3.609,6.159,6.107"/>
						</g>
						<g>
							<path style="fill:none;stroke:#92E3A9;stroke-linecap:round;stroke-linejoin:round;stroke-miterlimit:10;" d="
								M283.791,388.412c2.64-2.338,5.535-3.679,7.94-3.679c1.118,0,2.34,0.291,3.63,0.867"/>
						</g>
						<g>
							<path style="fill:none;stroke:#92E3A9;stroke-linecap:round;stroke-linejoin:round;stroke-miterlimit:10;" d="
								M279.384,409.614c-0.312-1.58-0.47-3.296-0.47-5.101c0-9.279,7.805-16.262,12.865-16.262c1.271,0,2.718,0.44,4.182,1.273"/>
						</g>
						<g>
							<path style="fill:none;stroke:#92E3A9;stroke-linecap:round;stroke-linejoin:round;stroke-miterlimit:10;" d="
								M284.202,418.346c-1.745-1.378-3.086-3.31-3.988-5.743"/>
						</g>
						<g>
							<path style="fill:none;stroke:#92E3A9;stroke-linecap:round;stroke-linejoin:round;stroke-miterlimit:10;" d="
								M304.645,404.514c0,10.488-4.569,16.263-12.866,16.263c-1.779,0-3.421-0.294-4.88-0.875"/>
						</g>
						<g>
							<path style="fill:none;stroke:#92E3A9;stroke-linecap:round;stroke-linejoin:round;stroke-miterlimit:10;" d="
								M298.472,391.333c3.233,2.846,5.424,6.83,6.012,10.93"/>
						</g>
						<g>
							<path style="fill:none;stroke:#92E3A9;stroke-linecap:round;stroke-linejoin:round;stroke-miterlimit:10;" d="
								M297.031,416.281c-1.465,0.837-3.215,1.261-5.203,1.261c-6.403,0-10.381-4.938-10.381-12.887c0-3.112,1.168-6.235,3.29-8.792
								"/>
						</g>
						<g>
							<path style="fill:none;stroke:#92E3A9;stroke-linecap:round;stroke-linejoin:round;stroke-miterlimit:10;" d="
								M287.47,393.339c1.493-1.027,3-1.57,4.357-1.57c4.083,0,10.381,5.533,10.381,12.886c0,3.946-0.911,7.2-2.636,9.41"/>
						</g>
						<g>
							<path style="fill:none;stroke:#92E3A9;stroke-linecap:round;stroke-linejoin:round;stroke-miterlimit:10;" d="
								M286.42,412.083c-1.573-1.678-2.439-4.265-2.439-7.285c0-5.122,4.341-9.51,7.896-9.51c0.601,0,1.238,0.13,1.894,0.387"/>
						</g>
						<g>
							<path style="fill:none;stroke:#92E3A9;stroke-linecap:round;stroke-linejoin:round;stroke-miterlimit:10;" d="
								M295.964,396.992c2.384,1.954,3.807,4.872,3.807,7.806c0,5.955-2.952,9.51-7.896,9.51c-1.111,0-2.14-0.192-3.06-0.57"/>
						</g>
						<g>
							<path style="fill:none;stroke:#92E3A9;stroke-linecap:round;stroke-linejoin:round;stroke-miterlimit:10;" d="
								M297.335,404.94c0,3.726-2.124,6.134-5.411,6.134c-2.654,0-4.606-1.631-5.22-4.362"/>
						</g>
						<g>
							<path style="fill:none;stroke:#92E3A9;stroke-linecap:round;stroke-linejoin:round;stroke-miterlimit:10;" d="
								M286.513,404.94c0-3.455,2.908-6.134,5.411-6.134c1.931,0,4.001,1.58,4.922,3.758"/>
						</g>
						<g>
							<path style="fill:none;stroke:#92E3A9;stroke-linecap:round;stroke-linejoin:round;stroke-miterlimit:10;" d="
								M293.961,403.06c0.596,0.52,0.937,1.258,0.937,2.023c0,1.521-1.313,2.758-2.926,2.758c-1.614,0-2.926-1.237-2.926-2.758
								c0-1.521,1.313-2.758,2.926-2.758"/>
						</g>
					</g>
				</g>
			</g>
			<path style="fill:none;stroke:#263238;stroke-linecap:round;stroke-linejoin:round;stroke-miterlimit:10;" d="M269.004,412.942
				c-0.445-5.61,1.42-11.368,5.07-15.653c3.649-4.284,9.037-7.042,14.647-7.495c-2.62,9.997-8.326,19.163-16.142,25.925
				c-1.388-8.249,2.657-17.15,9.784-21.528c1.744-1.072,3.703-1.901,5.75-1.934c2.046-0.033,4.186,0.846,5.28,2.576
				c1.347,2.13,0.81,5.034-0.626,7.105c-1.436,2.07-3.607,3.492-5.723,4.86c2.816-3.378,5.632-6.757,8.448-10.135
				c-0.928,2.069-1.877,4.323-1.374,6.534c0.503,2.211,3.207,4.001,5.092,2.74c-2.917,2.971-5.835,5.941-8.752,8.912
				c1.036-6.407,5.663-12.11,11.718-14.444c-0.635,5.566-5.098,10.485-10.576,11.656c5.744-7.914,13.8-14.129,22.913-17.677"/>
		</g>
		<g id="Text">
			<g>
				<path style="fill:#263238;" d="M144.082,157.675v2.074c0,2.553-1.231,3.944-3.739,3.944h-1.186v5.996h-2.508v-15.958h3.693
					C142.852,153.731,144.082,155.122,144.082,157.675z M139.158,156.011v5.402h1.186c0.798,0,1.231-0.365,1.231-1.504v-2.394
					c0-1.14-0.433-1.504-1.231-1.504H139.158z"/>
				<path style="fill:#263238;" d="M147.867,160.456h3.442v2.279h-3.442v4.673h4.331v2.28h-6.839v-15.958h6.839v2.28h-4.331V160.456
					z"/>
				<path style="fill:#263238;" d="M158.993,169.689c-0.137-0.41-0.228-0.661-0.228-1.961v-2.508c0-1.481-0.501-2.029-1.642-2.029
					h-0.866v6.497h-2.507v-15.958h3.784c2.599,0,3.716,1.208,3.716,3.67v1.254c0,1.642-0.524,2.713-1.642,3.237
					c1.254,0.524,1.664,1.732,1.664,3.396v2.462c0,0.775,0.023,1.345,0.274,1.938H158.993z M156.257,156.011v4.901h0.98
					c0.935,0,1.504-0.41,1.504-1.687v-1.573c0-1.14-0.388-1.641-1.276-1.641H156.257z"/>
				<path style="fill:#263238;" d="M166.289,153.548c2.439,0,3.693,1.459,3.693,4.012v0.501h-2.371v-0.661
					c0-1.14-0.456-1.573-1.254-1.573c-0.798,0-1.253,0.433-1.253,1.573c0,3.283,4.901,3.898,4.901,8.458
					c0,2.554-1.276,4.013-3.738,4.013c-2.462,0-3.739-1.459-3.739-4.013v-0.98h2.371v1.14c0,1.14,0.501,1.55,1.299,1.55
					c0.798,0,1.3-0.41,1.3-1.55c0-3.283-4.901-3.898-4.901-8.458C162.596,155.007,163.85,153.548,166.289,153.548z"/>
				<path style="fill:#263238;" d="M171.236,157.561c0-2.553,1.345-4.012,3.807-4.012c2.462,0,3.807,1.459,3.807,4.012v8.298
					c0,2.554-1.345,4.013-3.807,4.013c-2.462,0-3.807-1.459-3.807-4.013V157.561z M173.744,166.018c0,1.14,0.501,1.573,1.299,1.573
					c0.798,0,1.299-0.433,1.299-1.573v-8.617c0-1.14-0.501-1.573-1.299-1.573c-0.798,0-1.299,0.433-1.299,1.573V166.018z"/>
				<path style="fill:#263238;" d="M182.704,158.13v11.558h-2.257v-15.958h3.146l2.576,9.552v-9.552h2.234v15.958h-2.576
					L182.704,158.13z"/>
				<path style="fill:#263238;" d="M198.32,169.689h-2.53l-0.433-2.895h-3.078l-0.433,2.895h-2.302l2.553-15.958h3.67
					L198.32,169.689z M192.599,164.627h2.416l-1.208-8.07L192.599,164.627z"/>
				<path style="fill:#263238;" d="M199.484,153.731h2.507v13.678h4.126v2.28h-6.634V153.731z"/>
				<path style="fill:#263238;" d="M210.746,153.731h3.967c2.508,0,3.739,1.391,3.739,3.944v8.07c0,2.553-1.231,3.944-3.739,3.944
					h-3.967V153.731z M213.254,156.011v11.398h1.414c0.798,0,1.276-0.41,1.276-1.55v-8.298c0-1.14-0.479-1.55-1.276-1.55H213.254z"
					/>
				<path style="fill:#263238;" d="M228.141,169.689h-2.53l-0.433-2.895H222.1l-0.433,2.895h-2.302l2.553-15.958h3.67
					L228.141,169.689z M222.419,164.627h2.417l-1.208-8.07L222.419,164.627z"/>
				<path style="fill:#263238;" d="M228.575,153.731h7.751v2.28h-2.622v13.678h-2.507v-13.678h-2.622V153.731z"/>
				<path style="fill:#263238;" d="M244.67,169.689h-2.53l-0.433-2.895h-3.078l-0.433,2.895h-2.302l2.553-15.958h3.67
					L244.67,169.689z M238.949,164.627h2.416l-1.208-8.07L238.949,164.627z"/>
			</g>
			<g>
				<path style="fill:#263238;" d="M139.149,235.662v0.944h-2.142v4.032h-1.038v-9.314h3.699v0.945h-2.661v3.393H139.149z"/>
				<path style="fill:#263238;" d="M141.53,231.324v9.314h-1.038v-9.314H141.53z"/>
				<path style="fill:#263238;" d="M144.67,231.324c1.463,0,2.076,0.745,2.076,2.129v0.758c0,1.025-0.359,1.664-1.158,1.916
					c0.852,0.253,1.171,0.945,1.171,1.943v1.45c0,0.413,0.013,0.798,0.187,1.118h-1.051c-0.12-0.266-0.173-0.505-0.173-1.131v-1.464
					c0-1.051-0.492-1.384-1.357-1.384h-0.732v3.979h-1.038v-9.314H144.67z M144.404,235.715c0.825,0,1.317-0.266,1.317-1.277v-0.891
					c0-0.838-0.306-1.277-1.078-1.277h-1.011v3.446H144.404z"/>
				<path style="fill:#263238;" d="M151.869,233.56v0.253h-0.985v-0.306c0-0.838-0.319-1.331-1.064-1.331
					c-0.745,0-1.064,0.492-1.064,1.317c0,2.089,3.127,2.288,3.127,4.91c0,1.411-0.679,2.329-2.102,2.329
					c-1.423,0-2.089-0.918-2.089-2.329v-0.532h0.972v0.585c0,0.838,0.346,1.331,1.091,1.331s1.091-0.492,1.091-1.331
					c0-2.076-3.113-2.275-3.113-4.896c0-1.437,0.665-2.329,2.063-2.329C151.203,231.231,151.869,232.149,151.869,233.56z"/>
				<path style="fill:#263238;" d="M154.144,240.638v-8.369h-1.716v-0.945h4.471v0.945h-1.716v8.369H154.144z"/>
				<path style="fill:#263238;" d="M160.597,240.638h-0.931v-9.314h1.317l2.156,6.732v-6.732h0.918v9.314h-1.078l-2.382-7.531
					V240.638z"/>
				<path style="fill:#263238;" d="M166.172,238.762l-0.359,1.876h-0.958l1.783-9.314h1.503l1.783,9.314h-1.038l-0.359-1.876
					H166.172z M166.305,237.871h2.076l-1.051-5.376L166.305,237.871z"/>
				<path style="fill:#263238;" d="M174.168,240.625h-0.998l-1.543-7.411v7.424h-0.905v-9.314h1.45l1.53,7.438l1.477-7.438h1.45
					v9.314h-0.985v-7.491L174.168,240.625z"/>
				<path style="fill:#263238;" d="M181.007,235.449v0.931h-2.275v3.313h2.794v0.945h-3.832v-9.314h3.832v0.945h-2.794v3.18H181.007
					z"/>
				<path style="fill:#263238;" d="M202.043,234.278v1.29h-0.998v-1.29H202.043z M202.043,239.348v1.29h-0.998v-1.29H202.043z"/>
			</g>
			<g>
				<path style="fill:#263238;" d="M135.969,261.495v-9.314h1.038v8.369h2.661v0.945H135.969z"/>
				<path style="fill:#263238;" d="M141.504,259.619l-0.359,1.876h-0.958l1.783-9.314h1.503l1.783,9.314h-1.038l-0.359-1.876
					H141.504z M141.637,258.727h2.076l-1.051-5.376L141.637,258.727z"/>
				<path style="fill:#263238;" d="M150.099,254.416v0.253h-0.985v-0.306c0-0.838-0.319-1.331-1.065-1.331
					c-0.745,0-1.064,0.492-1.064,1.317c0,2.089,3.127,2.289,3.127,4.91c0,1.411-0.679,2.329-2.102,2.329
					c-1.423,0-2.089-0.918-2.089-2.329v-0.532h0.972v0.585c0,0.838,0.346,1.331,1.091,1.331s1.091-0.492,1.091-1.331
					c0-2.076-3.113-2.275-3.113-4.896c0-1.437,0.665-2.329,2.063-2.329C149.434,252.087,150.099,253.006,150.099,254.416z"/>
				<path style="fill:#263238;" d="M152.374,261.495v-8.369h-1.716v-0.945h4.471v0.945h-1.716v8.369H152.374z"/>
				<path style="fill:#263238;" d="M158.827,261.495h-0.931v-9.314h1.317l2.156,6.732v-6.732h0.918v9.314h-1.078l-2.382-7.531
					V261.495z"/>
				<path style="fill:#263238;" d="M164.402,259.619l-0.359,1.876h-0.958l1.783-9.314h1.503l1.783,9.314h-1.038l-0.359-1.876
					H164.402z M164.535,258.727h2.076l-1.051-5.376L164.535,258.727z"/>
				<path style="fill:#263238;" d="M172.398,261.481h-0.997l-1.544-7.411v7.424h-0.905v-9.314h1.45l1.53,7.438l1.477-7.438h1.45
					v9.314h-0.985v-7.491L172.398,261.481z"/>
				<path style="fill:#263238;" d="M179.238,256.306v0.931h-2.275v3.313h2.794v0.945h-3.832v-9.314h3.832v0.945h-2.794v3.18H179.238
					z"/>
				<path style="fill:#263238;" d="M202.336,255.135v1.29h-0.998v-1.29H202.336z M202.336,260.204v1.29h-0.998v-1.29H202.336z"/>
			</g>
			<g>
				<path style="fill:#263238;" d="M137.007,272.516v9.314h-1.038v-9.314H137.007z"/>
				<path style="fill:#263238;" d="M140.253,272.516c1.45,0,2.116,0.878,2.116,2.315v4.697c0,1.424-0.666,2.302-2.116,2.302h-2.182
					v-9.314H140.253z M140.24,280.886c0.745,0,1.104-0.466,1.104-1.317v-4.79c0-0.852-0.359-1.317-1.117-1.317h-1.118v7.425H140.24z
					"/>
				<path style="fill:#263238;" d="M146.32,281.83h-0.931v-9.314h1.317l2.156,6.733v-6.733h0.918v9.314h-1.078l-2.382-7.531V281.83z
					"/>
				<path style="fill:#263238;" d="M151.829,279.635c0,0.838,0.332,1.344,1.091,1.344c0.745,0,1.078-0.506,1.078-1.344v-7.119h0.971
					v7.066c0,1.41-0.652,2.354-2.089,2.354c-1.424,0-2.076-0.944-2.076-2.354v-7.066h1.025V279.635z"/>
				<path style="fill:#263238;" d="M159.426,281.817h-0.998l-1.543-7.412v7.425h-0.905v-9.314h1.45l1.53,7.438l1.477-7.438h1.45
					v9.314h-0.985v-7.491L159.426,281.817z"/>
				<path style="fill:#263238;" d="M165.041,272.516c1.45,0,2.022,0.692,2.022,2.063v0.439c0,0.984-0.279,1.597-1.091,1.85
					c0.905,0.253,1.25,0.972,1.25,1.996v0.785c0,1.396-0.678,2.182-2.129,2.182h-2.142v-9.314H165.041z M164.788,276.468
					c0.825,0,1.251-0.266,1.251-1.237v-0.545c0-0.825-0.279-1.225-1.024-1.225h-1.024v3.007H164.788z M165.094,280.886
					c0.758,0,1.105-0.399,1.105-1.265v-0.824c0-1.038-0.413-1.384-1.304-1.384h-0.904v3.473H165.094z"/>
				<path style="fill:#263238;" d="M171.48,276.641v0.932h-2.275v3.313h2.794v0.944h-3.832v-9.314h3.832v0.945h-2.794v3.18H171.48z"
					/>
				<path style="fill:#263238;" d="M175.033,272.516c1.464,0,2.076,0.746,2.076,2.129v0.758c0,1.024-0.359,1.663-1.158,1.916
					c0.851,0.253,1.171,0.945,1.171,1.943v1.45c0,0.412,0.014,0.798,0.186,1.117h-1.051c-0.12-0.266-0.173-0.506-0.173-1.131v-1.464
					c0-1.051-0.493-1.384-1.357-1.384h-0.732v3.979h-1.038v-9.314H175.033z M174.767,276.907c0.825,0,1.317-0.267,1.317-1.277
					v-0.892c0-0.838-0.306-1.277-1.078-1.277h-1.012v3.446H174.767z"/>
				<path style="fill:#263238;" d="M201.883,275.47v1.291h-0.998v-1.291H201.883z M201.883,280.54v1.29h-0.998v-1.29H201.883z"/>
			</g>
			<g>
				<path style="fill:#263238;" d="M140.08,293.936v0.798h-0.984v-0.852c0-0.838-0.333-1.344-1.091-1.344
					c-0.745,0-1.091,0.506-1.091,1.344v4.924c0,0.838,0.346,1.344,1.091,1.344c0.758,0,1.091-0.506,1.091-1.344v-1.863h-0.958
					v-0.932h1.942v2.741c0,1.41-0.665,2.342-2.102,2.342c-1.424,0-2.089-0.932-2.089-2.342v-4.816c0-1.41,0.665-2.342,2.089-2.342
					C139.415,291.595,140.08,292.526,140.08,293.936z"/>
				<path style="fill:#263238;" d="M144.377,295.813v0.932h-2.275v3.313h2.794v0.945h-3.832v-9.315h3.832v0.945h-2.794v3.18H144.377
					z"/>
				<path style="fill:#263238;" d="M146.772,301.002h-0.931v-9.315h1.317l2.156,6.732v-6.732h0.918v9.315h-1.078l-2.382-7.531
					V301.002z"/>
				<path style="fill:#263238;" d="M153.479,291.688c1.45,0,2.116,0.878,2.116,2.315v4.697c0,1.423-0.665,2.302-2.116,2.302h-2.182
					v-9.315H153.479z M153.465,300.057c0.745,0,1.104-0.466,1.104-1.317v-4.79c0-0.852-0.359-1.316-1.117-1.316h-1.118v7.424
					H153.465z"/>
				<path style="fill:#263238;" d="M159.878,295.813v0.932h-2.275v3.313h2.794v0.945h-3.832v-9.315h3.832v0.945h-2.794v3.18H159.878
					z"/>
				<path style="fill:#263238;" d="M163.431,291.688c1.464,0,2.076,0.745,2.076,2.129v0.759c0,1.024-0.359,1.663-1.158,1.916
					c0.852,0.253,1.171,0.944,1.171,1.942v1.45c0,0.413,0.014,0.799,0.187,1.118h-1.051c-0.12-0.267-0.173-0.506-0.173-1.131v-1.464
					c0-1.052-0.493-1.384-1.357-1.384h-0.732v3.979h-1.038v-9.315H163.431z M163.165,296.078c0.825,0,1.317-0.266,1.317-1.277
					v-0.891c0-0.839-0.306-1.277-1.078-1.277h-1.012v3.445H163.165z"/>
				<path style="fill:#263238;" d="M202.655,294.642v1.291h-0.998v-1.291H202.655z M202.655,299.711v1.291h-0.998v-1.291H202.655z"
					/>
			</g>
			<g>
				<path style="fill:#263238;" d="M138.151,311.969c1.45,0,2.116,0.878,2.116,2.314v4.697c0,1.424-0.666,2.302-2.116,2.302h-2.182
					v-9.313H138.151z M138.138,320.338c0.745,0,1.105-0.466,1.105-1.317v-4.79c0-0.852-0.359-1.317-1.118-1.317h-1.117v7.425
					H138.138z"/>
				<path style="fill:#263238;" d="M142.102,319.991v1.291h-0.998v-1.291H142.102z"/>
				<path style="fill:#263238;" d="M142.954,314.217c0-1.424,0.706-2.342,2.129-2.342c1.438,0,2.143,0.918,2.143,2.342v4.816
					c0,1.411-0.705,2.342-2.143,2.342c-1.423,0-2.129-0.931-2.129-2.342V314.217z M143.979,319.087c0,0.852,0.359,1.344,1.104,1.344
					c0.759,0,1.105-0.492,1.105-1.344v-4.923c0-0.839-0.346-1.344-1.105-1.344c-0.745,0-1.104,0.505-1.104,1.344V319.087z"/>
				<path style="fill:#263238;" d="M149.075,319.991v1.291h-0.998v-1.291H149.075z"/>
				<path style="fill:#263238;" d="M152.228,311.969c1.451,0,2.023,0.691,2.023,2.061v0.439c0,0.984-0.279,1.597-1.091,1.85
					c0.905,0.253,1.251,0.972,1.251,1.996v0.784c0,1.397-0.679,2.183-2.129,2.183h-2.142v-9.313H152.228z M151.976,315.92
					c0.825,0,1.25-0.266,1.25-1.237v-0.546c0-0.824-0.279-1.224-1.024-1.224h-1.025v3.007H151.976z M152.281,320.338
					c0.759,0,1.104-0.399,1.104-1.265v-0.825c0-1.037-0.413-1.383-1.304-1.383h-0.905v3.473H152.281z"/>
				<path style="fill:#263238;" d="M201.724,314.922v1.291h-0.998v-1.291H201.724z M201.724,319.991v1.291h-0.998v-1.291H201.724z"
					/>
			</g>
			<g>
				<path style="fill:#263238;" d="M135.207,337.401v4.191h-1.038v-9.314h1.038v4.19h2.288v-4.19h1.038v9.314h-1.038v-4.191H135.207
					z"/>
				<path style="fill:#263238;" d="M142.911,336.403v0.932h-2.275v3.313h2.794v0.944h-3.832v-9.314h3.832v0.944h-2.794v3.18H142.911
					z"/>
				<path style="fill:#263238;" d="M145.425,332.279v9.314h-1.038v-9.314H145.425z"/>
				<path style="fill:#263238;" d="M150.601,334.527v0.799h-0.984v-0.852c0-0.839-0.333-1.344-1.091-1.344
					c-0.745,0-1.091,0.505-1.091,1.344v4.923c0,0.838,0.346,1.344,1.091,1.344c0.758,0,1.091-0.506,1.091-1.344v-1.863h-0.958
					v-0.931h1.942v2.74c0,1.411-0.665,2.342-2.102,2.342c-1.424,0-2.089-0.931-2.089-2.342v-4.816c0-1.41,0.665-2.342,2.089-2.342
					C149.936,332.185,150.601,333.117,150.601,334.527z"/>
				<path style="fill:#263238;" d="M152.623,337.401v4.191h-1.038v-9.314h1.038v4.19h2.289v-4.19h1.038v9.314h-1.038v-4.191H152.623
					z"/>
				<path style="fill:#263238;" d="M158.371,341.593v-8.369h-1.717v-0.944h4.471v0.944h-1.716v8.369H158.371z"/>
				<path style="fill:#263238;" d="M199.964,335.232v1.291h-0.998v-1.291H199.964z M199.964,340.302v1.291h-0.998v-1.291H199.964z"
					/>
			</g>
			<g>
				<path style="fill:#263238;" d="M134.427,360.765h-1.424l-1.277-9.313h1.011l1.091,7.93l1.038-7.917h1.024l1.025,7.931
					l1.051-7.943h0.905l-1.264,9.313h-1.37l-0.892-6.32L134.427,360.765z"/>
				<path style="fill:#263238;" d="M143.021,355.575v0.932h-2.275v3.314h2.794v0.944h-3.832v-9.313h3.832v0.944h-2.794v3.18H143.021
					z"/>
				<path style="fill:#263238;" d="M145.536,351.451v9.313h-1.038v-9.313H145.536z"/>
				<path style="fill:#263238;" d="M150.712,353.699v0.799h-0.984v-0.851c0-0.839-0.333-1.344-1.091-1.344
					c-0.745,0-1.091,0.505-1.091,1.344v4.923c0,0.838,0.346,1.344,1.091,1.344c0.758,0,1.091-0.506,1.091-1.344v-1.863h-0.958
					v-0.931h1.942v2.74c0,1.411-0.665,2.342-2.102,2.342c-1.424,0-2.089-0.931-2.089-2.342v-4.816c0-1.41,0.666-2.342,2.089-2.342
					C150.047,351.357,150.712,352.289,150.712,353.699z"/>
				<path style="fill:#263238;" d="M152.734,356.573v4.191h-1.038v-9.313h1.038v4.19h2.289v-4.19h1.038v9.313h-1.038v-4.191H152.734
					z"/>
				<path style="fill:#263238;" d="M158.482,360.765v-8.369h-1.717v-0.944h4.471v0.944h-1.716v8.369H158.482z"/>
				<path style="fill:#263238;" d="M198.013,354.404v1.291h-0.998v-1.291H198.013z M198.013,359.474v1.291h-0.998v-1.291H198.013z"
					/>
			</g>
			<g>
				<path style="fill:#263238;" d="M132.03,372.84c1.45,0,2.022,0.692,2.022,2.063v0.439c0,0.984-0.279,1.597-1.091,1.85
					c0.905,0.253,1.251,0.971,1.251,1.996v0.785c0,1.396-0.678,2.182-2.129,2.182h-2.142v-9.314H132.03z M131.777,376.792
					c0.825,0,1.251-0.266,1.251-1.237v-0.546c0-0.824-0.279-1.224-1.024-1.224h-1.024v3.007H131.777z M132.083,381.21
					c0.758,0,1.105-0.4,1.105-1.265v-0.824c0-1.038-0.413-1.385-1.304-1.385h-0.904v3.474H132.083z"/>
				<path style="fill:#263238;" d="M135.157,382.154v-9.314h1.038v8.37h2.661v0.944H135.157z"/>
				<path style="fill:#263238;" d="M139.561,375.089c0-1.424,0.705-2.342,2.129-2.342c1.437,0,2.142,0.918,2.142,2.342v4.816
					c0,1.411-0.705,2.342-2.142,2.342c-1.424,0-2.129-0.931-2.129-2.342V375.089z M140.586,379.959c0,0.851,0.359,1.344,1.105,1.344
					c0.758,0,1.104-0.492,1.104-1.344v-4.923c0-0.839-0.346-1.345-1.104-1.345c-0.745,0-1.105,0.506-1.105,1.345V379.959z"/>
				<path style="fill:#263238;" d="M144.737,375.089c0-1.424,0.705-2.342,2.129-2.342c1.437,0,2.142,0.918,2.142,2.342v4.816
					c0,1.411-0.706,2.342-2.142,2.342c-1.424,0-2.129-0.931-2.129-2.342V375.089z M145.762,379.959c0,0.851,0.359,1.344,1.104,1.344
					c0.758,0,1.104-0.492,1.104-1.344v-4.923c0-0.839-0.346-1.345-1.104-1.345c-0.745,0-1.104,0.506-1.104,1.345V379.959z"/>
				<path style="fill:#263238;" d="M152.174,372.84c1.45,0,2.116,0.879,2.116,2.315v4.697c0,1.424-0.665,2.302-2.116,2.302h-2.182
					v-9.314H152.174z M152.161,381.21c0.745,0,1.104-0.466,1.104-1.317v-4.79c0-0.852-0.359-1.317-1.118-1.317h-1.117v7.425H152.161
					z"/>
				<path style="fill:#263238;" d="M158.681,382.154v-8.369h-1.716v-0.945h4.471v0.945h-1.716v8.369H158.681z"/>
				<path style="fill:#263238;" d="M163.803,378.815l-1.969-5.975h1.078l1.451,4.578l1.463-4.578h0.985l-1.983,5.975v3.34h-1.024
					V378.815z"/>
				<path style="fill:#263238;" d="M169.591,372.84c1.464,0,2.089,0.865,2.089,2.275v1.118c0,1.477-0.691,2.249-2.169,2.249h-0.918
					v3.672h-1.038v-9.314H169.591z M169.511,377.551c0.771,0,1.144-0.359,1.144-1.251v-1.237c0-0.852-0.306-1.277-1.064-1.277
					h-0.998v3.766H169.511z"/>
				<path style="fill:#263238;" d="M175.845,376.965v0.932h-2.275v3.313h2.795v0.944h-3.832v-9.314h3.832v0.945h-2.795v3.18H175.845
					z"/>
				<path style="fill:#263238;" d="M196.88,375.794v1.291h-0.998v-1.291H196.88z M196.88,380.863v1.291h-0.998v-1.291H196.88z"/>
			</g>
			<g>
				<path style="fill:#263238;" d="M128.395,398.591v4.191h-1.038v-9.313h1.038v4.19h2.289v-4.19h1.038v9.313h-1.038v-4.191H128.395
					z"/>
				<path style="fill:#263238;" d="M132.706,395.717c0-1.424,0.705-2.342,2.129-2.342c1.436,0,2.142,0.918,2.142,2.342v4.816
					c0,1.411-0.706,2.342-2.142,2.342c-1.424,0-2.129-0.931-2.129-2.342V395.717z M133.73,400.587c0,0.852,0.359,1.344,1.105,1.344
					c0.758,0,1.104-0.492,1.104-1.344v-4.923c0-0.839-0.346-1.344-1.104-1.344c-0.745,0-1.105,0.505-1.105,1.344V400.587z"/>
				<path style="fill:#263238;" d="M141.394,402.769h-0.998l-1.544-7.411v7.425h-0.905v-9.313h1.45l1.53,7.438l1.477-7.438h1.45
					v9.313h-0.985v-7.491L141.394,402.769z"/>
				<path style="fill:#263238;" d="M148.233,397.593v0.932h-2.275v3.313h2.794v0.944h-3.832v-9.313h3.832v0.944h-2.794v3.18H148.233
					z"/>
				<path style="fill:#263238;" d="M152.823,400.906l-0.359,1.876h-0.958l1.783-9.313h1.503l1.783,9.313h-1.038l-0.359-1.876
					H152.823z M152.956,400.015h2.076l-1.051-5.376L152.956,400.015z"/>
				<path style="fill:#263238;" d="M159.569,393.469c1.45,0,2.116,0.878,2.116,2.314v4.697c0,1.424-0.666,2.302-2.116,2.302h-2.182
					v-9.313H159.569z M159.556,401.838c0.745,0,1.105-0.466,1.105-1.317v-4.79c0-0.852-0.359-1.317-1.118-1.317h-1.117v7.425
					H159.556z"/>
				<path style="fill:#263238;" d="M164.731,393.469c1.464,0,2.076,0.744,2.076,2.129v0.758c0,1.024-0.359,1.663-1.158,1.916
					c0.852,0.253,1.171,0.945,1.171,1.942v1.45c0,0.413,0.014,0.799,0.186,1.118h-1.051c-0.12-0.267-0.173-0.506-0.173-1.131v-1.464
					c0-1.051-0.493-1.384-1.357-1.384h-0.732v3.978h-1.038v-9.313H164.731z M164.465,397.859c0.825,0,1.317-0.267,1.317-1.277
					v-0.892c0-0.839-0.306-1.277-1.078-1.277h-1.012v3.446H164.465z"/>
				<path style="fill:#263238;" d="M171.211,397.593v0.932h-2.275v3.313h2.794v0.944h-3.832v-9.313h3.832v0.944h-2.794v3.18H171.211
					z"/>
				<path style="fill:#263238;" d="M176.72,395.703v0.253h-0.985v-0.306c0-0.838-0.319-1.33-1.064-1.33s-1.064,0.492-1.064,1.316
					c0,2.09,3.127,2.289,3.127,4.91c0,1.41-0.679,2.328-2.102,2.328c-1.424,0-2.089-0.918-2.089-2.328v-0.532h0.971v0.585
					c0,0.839,0.346,1.331,1.091,1.331c0.745,0,1.091-0.492,1.091-1.331c0-2.075-3.114-2.274-3.114-4.897
					c0-1.436,0.666-2.328,2.063-2.328C176.054,393.375,176.72,394.293,176.72,395.703z"/>
				<path style="fill:#263238;" d="M181.669,395.703v0.253h-0.985v-0.306c0-0.838-0.319-1.33-1.064-1.33
					c-0.745,0-1.064,0.492-1.064,1.316c0,2.09,3.127,2.289,3.127,4.91c0,1.41-0.679,2.328-2.103,2.328
					c-1.423,0-2.089-0.918-2.089-2.328v-0.532h0.972v0.585c0,0.839,0.346,1.331,1.091,1.331s1.091-0.492,1.091-1.331
					c0-2.075-3.113-2.274-3.113-4.897c0-1.436,0.665-2.328,2.063-2.328C181.004,393.375,181.669,394.293,181.669,395.703z"/>
				<path style="fill:#263238;" d="M193.897,396.422v1.291h-0.998v-1.291H193.897z M193.897,401.491v1.291h-0.998v-1.291H193.897z"
					/>
			</g>
			<g>
				<path style="fill:#263238;" d="M126.066,414.857c1.464,0,2.089,0.865,2.089,2.275v1.118c0,1.477-0.692,2.249-2.169,2.249h-0.918
					v3.672h-1.038v-9.315H126.066z M125.986,419.568c0.771,0,1.144-0.359,1.144-1.251v-1.237c0-0.852-0.306-1.277-1.064-1.277
					h-0.997v3.766H125.986z"/>
				<path style="fill:#263238;" d="M130.004,419.98v4.191h-1.038v-9.315h1.038v4.191h2.289v-4.191h1.038v9.315h-1.038v-4.191
					H130.004z"/>
				<path style="fill:#263238;" d="M134.315,417.106c0-1.424,0.705-2.342,2.129-2.342c1.437,0,2.142,0.918,2.142,2.342v4.816
					c0,1.411-0.706,2.342-2.142,2.342c-1.424,0-2.129-0.931-2.129-2.342V417.106z M135.34,421.977c0,0.852,0.359,1.344,1.104,1.344
					c0.758,0,1.104-0.492,1.104-1.344v-4.923c0-0.839-0.346-1.345-1.104-1.345c-0.745,0-1.104,0.506-1.104,1.345V421.977z"/>
				<path style="fill:#263238;" d="M140.489,424.172h-0.931v-9.315h1.317l2.155,6.733v-6.733h0.918v9.315h-1.078l-2.382-7.531
					V424.172z"/>
				<path style="fill:#263238;" d="M148.326,418.982v0.932h-2.275v3.313h2.794v0.944h-3.832v-9.315h3.832v0.945h-2.794v3.18H148.326
					z"/>
				<path style="fill:#263238;" d="M152.783,424.172h-0.931v-9.315h1.317l2.155,6.733v-6.733h0.918v9.315h-1.078l-2.382-7.531
					V424.172z"/>
				<path style="fill:#263238;" d="M158.291,421.977c0,0.838,0.333,1.344,1.091,1.344c0.745,0,1.078-0.506,1.078-1.344v-7.119h0.972
					v7.066c0,1.411-0.652,2.355-2.089,2.355c-1.423,0-2.076-0.944-2.076-2.355v-7.066h1.024V421.977z"/>
				<path style="fill:#263238;" d="M165.889,424.158h-0.998l-1.543-7.411v7.425h-0.905v-9.315h1.45l1.53,7.439l1.477-7.439h1.451
					v9.315h-0.985v-7.491L165.889,424.158z"/>
				<path style="fill:#263238;" d="M171.503,414.857c1.451,0,2.022,0.692,2.022,2.063v0.44c0,0.984-0.279,1.597-1.091,1.85
					c0.905,0.253,1.25,0.971,1.25,1.996v0.785c0,1.396-0.679,2.182-2.129,2.182h-2.142v-9.315H171.503z M171.251,418.81
					c0.825,0,1.25-0.266,1.25-1.237v-0.546c0-0.824-0.279-1.224-1.024-1.224h-1.025v3.007H171.251z M171.557,423.228
					c0.759,0,1.105-0.399,1.105-1.265v-0.824c0-1.038-0.413-1.385-1.304-1.385h-0.905v3.474H171.557z"/>
				<path style="fill:#263238;" d="M177.943,418.982v0.932h-2.275v3.313h2.794v0.944h-3.832v-9.315h3.832v0.945h-2.794v3.18H177.943
					z"/>
				<path style="fill:#263238;" d="M181.496,414.857c1.463,0,2.076,0.746,2.076,2.129v0.759c0,1.024-0.359,1.663-1.158,1.916
					c0.852,0.253,1.171,0.944,1.171,1.942v1.451c0,0.412,0.013,0.798,0.187,1.117h-1.051c-0.12-0.266-0.173-0.506-0.173-1.131
					v-1.464c0-1.051-0.492-1.384-1.357-1.384h-0.732v3.979h-1.038v-9.315H181.496z M181.229,419.249
					c0.825,0,1.317-0.267,1.317-1.277v-0.892c0-0.838-0.306-1.277-1.078-1.277h-1.011v3.446H181.229z"/>
				<path style="fill:#263238;" d="M191.847,417.811v1.291h-0.998v-1.291H191.847z M191.847,422.881v1.291h-0.998v-1.291H191.847z"
					/>
			</g>
		</g>
	</g>
	<g id="Graphics_1_">
	</g>
</g>
<g id="Graphics_2_">
	<g>
		<g>
			<g>
				
					<line style="fill:none;stroke:#5C5C5C;stroke-linecap:round;stroke-linejoin:round;stroke-miterlimit:10;" x1="369.958" y1="171.143" x2="359.38" y2="171.143"/>
				
					<line style="fill:none;stroke:#5C5C5C;stroke-linecap:round;stroke-linejoin:round;stroke-miterlimit:10;" x1="369.605" y1="189.323" x2="359.38" y2="189.323"/>
				
					<line style="fill:none;stroke:#5C5C5C;stroke-linecap:round;stroke-linejoin:round;stroke-miterlimit:10;" x1="369.252" y1="207.503" x2="359.38" y2="207.503"/>
				
					<line style="fill:none;stroke:#5C5C5C;stroke-linecap:round;stroke-linejoin:round;stroke-miterlimit:10;" x1="368.899" y1="225.683" x2="359.38" y2="225.683"/>
				
					<line style="fill:none;stroke:#5C5C5C;stroke-linecap:round;stroke-linejoin:round;stroke-miterlimit:10;" x1="368.546" y1="243.863" x2="359.38" y2="243.863"/>
				
					<line style="fill:none;stroke:#5C5C5C;stroke-linecap:round;stroke-linejoin:round;stroke-miterlimit:10;" x1="368.192" y1="262.042" x2="359.38" y2="262.042"/>
				
					<line style="fill:none;stroke:#5C5C5C;stroke-linecap:round;stroke-linejoin:round;stroke-miterlimit:10;" x1="367.839" y1="280.222" x2="359.38" y2="280.222"/>
				
					<line style="fill:none;stroke:#5C5C5C;stroke-linecap:round;stroke-linejoin:round;stroke-miterlimit:10;" x1="367.486" y1="298.402" x2="359.38" y2="298.402"/>
				
					<line style="fill:none;stroke:#5C5C5C;stroke-linecap:round;stroke-linejoin:round;stroke-miterlimit:10;" x1="367.133" y1="316.582" x2="359.38" y2="316.582"/>
				
					<line style="fill:none;stroke:#5C5C5C;stroke-linecap:round;stroke-linejoin:round;stroke-miterlimit:10;" x1="366.779" y1="334.762" x2="359.38" y2="334.762"/>
				
					<line style="fill:none;stroke:#5C5C5C;stroke-linecap:round;stroke-linejoin:round;stroke-miterlimit:10;" x1="366.426" y1="352.941" x2="359.38" y2="352.941"/>
				
					<line style="fill:none;stroke:#5C5C5C;stroke-linecap:round;stroke-linejoin:round;stroke-miterlimit:10;" x1="366.073" y1="371.121" x2="359.38" y2="371.121"/>
				
					<line style="fill:none;stroke:#5C5C5C;stroke-linecap:round;stroke-linejoin:round;stroke-miterlimit:10;" x1="365.72" y1="389.301" x2="359.38" y2="389.301"/>
				
					<line style="fill:none;stroke:#5C5C5C;stroke-linecap:round;stroke-linejoin:round;stroke-miterlimit:10;" x1="365.367" y1="407.481" x2="359.38" y2="407.481"/>
				
					<line style="fill:none;stroke:#5C5C5C;stroke-linecap:round;stroke-linejoin:round;stroke-miterlimit:10;" x1="365.013" y1="425.661" x2="359.38" y2="425.661"/>
				
					<line style="fill:none;stroke:#5C5C5C;stroke-linecap:round;stroke-linejoin:round;stroke-miterlimit:10;" x1="364.66" y1="443.84" x2="359.38" y2="443.84"/>
				
					<line style="fill:none;stroke:#5C5C5C;stroke-linecap:round;stroke-linejoin:round;stroke-miterlimit:10;" x1="364.307" y1="462.02" x2="359.38" y2="462.02"/>
			</g>
			
				<line style="fill:none;stroke:#5C5C5C;stroke-linecap:round;stroke-linejoin:round;stroke-miterlimit:10;" x1="359.264" y1="171.143" x2="359.264" y2="462.02"/>
		</g>
		<g>
			<g>
				<path style="fill:none;stroke:#5C5C5C;stroke-linecap:round;stroke-linejoin:round;stroke-miterlimit:10;" d="M426.746,146.578
					c-2.384,3.011-5.878,6.033-9.19,9.08l-2.254,2.003c-0.011,0.013-0.034,0.027-0.051,0.041l-2.369-2.003
					c-3.029-2.653-6.22-5.422-8.513-8.212"/>
				<path style="fill:none;stroke:#5C5C5C;stroke-linecap:round;stroke-linejoin:round;stroke-miterlimit:10;" d="M427.307,144.156
					l-3.96,0.177l-1.141,2.322l-2.718-7.351l-1.716,7.374l-1.744-3.713l-2.151,6.663l-3.621-14.35l-2.077,9.642l-4.421,0.197
					c-2.885-3.759-3.965-7.535-0.612-11.081c4.196-4.444,9.453-0.713,12.14,1.742c2.606-2.504,8.341-7.646,13.193-1.508
					C430.916,137.353,429.692,140.879,427.307,144.156z"/>
			</g>
		</g>
		<path style="fill:none;stroke:#5C5C5C;stroke-linecap:round;stroke-linejoin:round;stroke-miterlimit:10;" d="M352.515,100.335
			c-5.018,0-9.089,4.071-9.089,9.089c0,5.022,9.089,18.25,9.089,18.25s9.089-13.228,9.089-18.25
			C361.604,104.407,357.533,100.335,352.515,100.335z M352.515,113.901c-2.287,0-4.139-1.852-4.139-4.139
			c0-2.284,1.852-4.139,4.139-4.139c2.287,0,4.139,1.856,4.139,4.139C356.655,112.049,354.803,113.901,352.515,113.901z"/>
		<g>
			<path style="fill:none;stroke:#5C5C5C;stroke-linecap:round;stroke-linejoin:round;stroke-miterlimit:10;" d="M422.296,115.2
				c5.018,0,9.089-4.071,9.089-9.089c0-5.022-9.089-18.25-9.089-18.25s-9.089,13.228-9.089,18.25
				C413.207,111.128,417.279,115.2,422.296,115.2z"/>
			<g>
				
					<line style="fill:none;stroke:#5C5C5C;stroke-linecap:round;stroke-linejoin:round;stroke-miterlimit:10;" x1="422.296" y1="98.913" x2="422.296" y2="105.461"/>
				
					<line style="fill:none;stroke:#5C5C5C;stroke-linecap:round;stroke-linejoin:round;stroke-miterlimit:10;" x1="419.023" y1="102.187" x2="425.57" y2="102.187"/>
				
					<line style="fill:none;stroke:#5C5C5C;stroke-linecap:round;stroke-linejoin:round;stroke-miterlimit:10;" x1="419.023" y1="108.731" x2="425.57" y2="108.731"/>
			</g>
		</g>
		<g>
			<g>
				<path style="fill:none;stroke:#5C5C5C;stroke-linecap:round;stroke-linejoin:round;stroke-miterlimit:10;" d="M383.006,148.909
					c0,2.945-2.028,5.525-6.193,6.309c-0.838,0.158-1.761,0.243-2.769,0.243c-0.54,0-1.087-0.024-1.621-0.079
					c-1.928-0.177-3.783-0.663-5.262-1.349c-1-0.464-1.427-1.658-0.974-2.663l0,0c0.467-1.036,1.684-1.469,2.717-0.995
					c1.076,0.494,2.288,0.86,3.519,1.037c0.546,0.085,1.105,0.127,1.651,0.127c1.196,0,2.095-0.164,2.738-0.449
					c0.929-0.401,1.336-1.05,1.336-1.815c0-0.808-0.516-1.336-1.336-1.737c-1.087-0.534-2.72-0.832-4.39-1.245
					c-3.2-0.789-6.551-2.004-6.551-6.102c0-3.085,2.137-5.72,6.551-6.4c0.723-0.115,1.506-0.176,2.35-0.176
					c0.68,0,1.36,0.042,2.04,0.127c1.202,0.146,2.373,0.422,3.436,0.827c1.057,0.403,1.575,1.598,1.15,2.646l0,0
					c-0.42,1.035-1.593,1.507-2.635,1.105c-0.653-0.252-1.305-0.442-1.951-0.571c-0.704-0.146-1.396-0.212-2.07-0.212
					c-0.965,0-1.731,0.121-2.319,0.328c-1.196,0.419-1.694,1.196-1.694,2.083c0,0.911,0.668,1.457,1.694,1.864
					c1.16,0.462,2.775,0.741,4.39,1.154C379.897,143.748,383.006,145.011,383.006,148.909z"/>
			</g>
			<polyline style="fill:none;stroke:#5C5C5C;stroke-linecap:round;stroke-linejoin:round;stroke-miterlimit:10;" points="
				372.423,131.576 372.423,129.02 376.813,129.02 376.813,131.527 			"/>
			<polyline style="fill:none;stroke:#5C5C5C;stroke-linecap:round;stroke-linejoin:round;stroke-miterlimit:10;" points="
				376.813,157.432 376.813,159.806 372.423,159.806 372.423,157.596 			"/>
		</g>
		<g>
			<path style="fill:none;stroke:#5C5C5C;stroke-linecap:round;stroke-linejoin:round;stroke-miterlimit:10;" d="M383.91,64.546
				l-13.951,13.951h5.255v13.202h6.047v-8.616h5.292v8.616h6.047V78.497h5.261L383.91,64.546z"/>
		</g>
	</g>
</g>
<g id="Photo">
	<g>
		<g>
			
				<rect x="301.404" y="240.479" style="fill:#BFBFBF;stroke:#263238;stroke-linecap:round;stroke-linejoin:round;" width="90.676" height="120.752"/>
		</g>
		<g>
			<g>
				<g>
					<g>
						<g>
							<g>
								<path style="fill:#92E3A9;stroke:#263238;stroke-linecap:round;stroke-linejoin:round;" d="M316.005,360.888h-14.114
									l0.006-0.036l1.896-10.903v-2.25c0-8.851,1.962-17.588,5.743-25.587c0.012-0.03,0.024-0.054,0.036-0.084l6.427,38.824
									L316.005,360.888z"/>
							</g>
							<g>
								<path style="fill:#92E3A9;stroke:#263238;stroke-linecap:round;stroke-linejoin:round;" d="M392.022,360.888h-14.174
									l0.006-0.036l5.005-30.207l1.452-8.767c1.902,4.008,3.348,8.209,4.314,12.511c0.972,4.309,1.464,8.719,1.464,13.16
									l1.926,13.304L392.022,360.888z"/>
							</g>
							<g>
								<defs>
									<path id="XMLID_2_" d="M384.143,320.983c0,0-0.57,4.188-1.284,9.661c-1.044,7.993-2.4,18.74-2.748,23.193
										c-0.114,1.44-0.282,3.918-0.48,7.015v0.036h-64.519c0-0.012,0-0.024-0.006-0.036c-2.082-15.65-5.202-36.322-5.569-38.74
										c-0.024-0.156-0.036-0.234-0.036-0.234l22.623-6.139l3.072-0.834c0.732-0.492,1.698-0.87,2.814-1.146
										c1.152-0.288,2.466-0.468,3.876-0.57c0.174-0.012,0.354-0.024,0.534-0.036c0.03,0,0.06-0.006,0.09-0.006
										c2.958-0.162,6.253,0,9.193,0.27c1.992,0.186,3.828,0.42,5.281,0.636c0.024,0.006,0.042,0.006,0.066,0.012
										c1.242,0.186,3.192,0.612,5.503,1.164C370.989,317.251,384.143,320.983,384.143,320.983z"/>
								</defs>
								<use xlink:href="#XMLID_2_"  style="overflow:visible;fill:#92E3A9;"/>
								<clipPath id="XMLID_00000152249109047997805960000006389297756070799782_">
									<use xlink:href="#XMLID_2_"  style="overflow:visible;"/>
								</clipPath>
								<path style="opacity:0.2;clip-path:url(#XMLID_00000152249109047997805960000006389297756070799782_);" d="M331.219,332.284
									c3.178-1.772,6.357-3.543,9.536-5.315c0.924-0.515,2.125-1.018,2.964-0.374c0.819,0.628,0.692,1.911,1.241,2.784
									c0.662,1.052,2.153,1.25,3.355,0.93c1.201-0.32,2.265-3.028,3.447-3.415c3.884-1.271,7.929,3.106,11.326,5.378
									c-0.536-5.281-1.073-10.563-1.609-15.844c0,0.276-21.983-0.118-23.944,0.322
									C330.996,318.216,331.954,326.889,331.219,332.284z"/>
								
									<use xlink:href="#XMLID_2_"  style="overflow:visible;fill:none;stroke:#263238;stroke-linecap:round;stroke-linejoin:round;"/>
							</g>
							<path style="fill:#263238;" d="M340.302,307.642c0,0-5.329,1.598-6.39,2.659c-1.061,1.061-1.866,6.703-2.938,9.586
								c-1.073,2.882-4.525,7.988-3.452,8.256c1.073,0.268,17.397-5.118,17.397-5.118l3.104,12.625l2.011-12.624
								c0,0,15.563,6.189,16.088,5.384c0.525-0.804-3.463-10.379-3.72-14.367c-0.257-3.988-6.133-5.329-9.586-5.586
								C349.362,308.201,340.302,307.642,340.302,307.642z"/>
							<polygon style="fill:#FFFFFF;stroke:#263238;stroke-linecap:round;stroke-linejoin:round;" points="338.011,301.185 
								338.011,316.759 347.629,321.646 347.72,334.634 347.629,321.646 356.982,316.535 356.982,300.28 							"/>
							<path style="fill:#FFFFFF;stroke:#263238;stroke-linecap:round;stroke-linejoin:round;" d="M329.119,285.097
								c-0.551,0.892-1.013,1.871-1.093,2.916c-0.099,1.29,0.399,2.569,1.142,3.628c0.743,1.059,1.721,1.927,2.699,2.773
								c0.408,0.353,0.827,0.709,1.327,0.913c0.499,0.204,1.101,0.233,1.556-0.058c0.5-0.319,0.718-0.957,0.701-1.55
								c-0.017-0.593-0.228-1.161-0.416-1.723c-0.794-2.372-0.544-4.925-1.226-7.224
								C333.027,282.132,330.244,283.275,329.119,285.097z"/>
							<path style="fill:#FFFFFF;stroke:#263238;stroke-linecap:round;stroke-linejoin:round;" d="M366.894,285.097
								c0.551,0.892,1.013,1.871,1.093,2.916c0.099,1.29-0.399,2.569-1.142,3.628c-0.743,1.059-1.721,1.927-2.699,2.773
								c-0.408,0.353-0.827,0.709-1.327,0.913c-0.499,0.204-1.101,0.233-1.556-0.058c-0.5-0.319-0.718-0.957-0.701-1.55
								c0.017-0.593,0.228-1.161,0.416-1.723c0.794-2.372,0.544-4.925,1.226-7.224C362.986,282.132,365.769,283.275,366.894,285.097
								z"/>
							<path style="fill:#263238;" d="M338.011,304.26c-0.003,0.001,2.932,11.108,8.809,11.346c5.877,0.238,10.161-10.2,10.161-10.2
								S350.917,301.018,338.011,304.26z"/>
							<path style="fill:#FFFFFF;stroke:#263238;stroke-linecap:round;stroke-linejoin:round;" d="M364.02,282.304
								c0,12.289-7.229,29.226-16.144,29.226c-8.915,0-16.144-16.937-16.144-29.226s7.228-22.244,16.144-22.244
								C356.792,260.06,364.02,270.014,364.02,282.304z"/>
							<path style="fill:#263238;" d="M341.958,284.382c0.5,0,0.905,1.035,0.905,2.313c0,1.277-0.405,2.313-0.905,2.313
								c-0.5,0-0.905-1.035-0.905-2.313C341.053,285.417,341.459,284.382,341.958,284.382z"/>
							<path style="fill:#263238;" d="M353.237,284.382c0.5,0,0.905,1.035,0.905,2.313c0,1.277-0.405,2.313-0.905,2.313
								c-0.5,0-0.905-1.035-0.905-2.313C352.332,285.417,352.737,284.382,353.237,284.382z"/>
							<path style="fill:none;stroke:#263238;stroke-linecap:round;stroke-linejoin:round;" d="M349.512,283.217l-0.592,1.19
								c0,0,0.4,6.245,0.573,7.597c0.172,1.352-0.818,2.863-2.293,2.071l-1.476-0.803"/>
							<path style="fill:none;stroke:#263238;stroke-linecap:round;stroke-linejoin:round;" d="M343.374,299.3
								c0,1.231,9.005,1.231,9.005,0"/>
							<path style="fill:#263238;" d="M332.49,290.59c0.945,0.184,0.945,0.184,1.89,0.369c-0.622-1.662-1.123-4.374-1.297-6.14
								c-0.174-1.766,2.37-4.415,2.37-5.656c0-6.737,3.663-6.543,4.412-5.554c0.097-1.23,5.859-7.172,10.16,1.062
								c1.096,2.098,12.8,3.959,12.76,5.855c-0.084,4.052-0.364,5.933-0.979,9.939c0.959,0.187,1.793-0.808,1.911-1.778
								c0.118-0.97,0.36-4.704,1.173-5.246c0.62,0.85,0.984,1.051,2.034,0.985c-0.465-1.197-0.937-2.437-0.882-3.719
								c0.056-1.283,0.727-0.431,1.958-0.794c0.649-0.191,6.121-3.877,6.802-5.852c-2.48,0.312-4.818-1.389-6.238-3.446
								c-1.42-2.057-2.193-4.485-3.393-6.677c-2.988-5.457-8.995-9.333-15.211-9.093c-6.217,0.239-12.167,5.008-13.113,11.157
								c-1.163-0.587-2.627-0.202-3.652,0.603c-1.025,0.805-1.705,1.958-2.361,3.084c-1.187,2.037-2.395,4.128-2.817,6.448
								c-0.422,2.32,1.926,5.572,3.717,7.106C331.966,282.712,331.84,290.59,332.49,290.59z"/>
							<g>
								<path style="fill:none;stroke:#5C5C5C;stroke-linecap:round;stroke-linejoin:round;stroke-miterlimit:10;" d="
									M333.351,269.381c-1.263,0.922-2.232,2.241-2.732,3.722"/>
								<path style="fill:none;stroke:#5C5C5C;stroke-linecap:round;stroke-linejoin:round;stroke-miterlimit:10;" d="
									M333.532,271.608c-0.464,0.462-0.854,0.999-1.15,1.583"/>
								<path style="fill:none;stroke:#5C5C5C;stroke-linecap:round;stroke-linejoin:round;stroke-miterlimit:10;" d="
									M334.641,272.89c-0.425,0.419-0.741,0.947-0.908,1.52"/>
							</g>
							<g>
								<path style="fill:none;stroke:#5C5C5C;stroke-linecap:round;stroke-linejoin:round;stroke-miterlimit:10;" d="
									M347.336,267.336c1.292,0.147,2.445,1.148,2.771,2.407"/>
								<path style="fill:none;stroke:#5C5C5C;stroke-linecap:round;stroke-linejoin:round;stroke-miterlimit:10;" d="
									M347.484,264.719c2.257,0.453,4.178,2.281,4.744,4.512"/>
								<path style="fill:none;stroke:#5C5C5C;stroke-linecap:round;stroke-linejoin:round;stroke-miterlimit:10;" d="
									M352.363,264.828c0.953,0.876,1.536,2.143,1.58,3.437"/>
								<path style="fill:none;stroke:#5C5C5C;stroke-linecap:round;stroke-linejoin:round;stroke-miterlimit:10;" d="
									M355.129,265.378c0.512,0.624,0.785,1.439,0.752,2.245"/>
								<path style="fill:none;stroke:#5C5C5C;stroke-linecap:round;stroke-linejoin:round;stroke-miterlimit:10;" d="
									M357.157,265.917c0.332,0.372,0.493,0.89,0.433,1.385"/>
								<path style="fill:none;stroke:#5C5C5C;stroke-linecap:round;stroke-linejoin:round;stroke-miterlimit:10;" d="
									M359.301,266.126c0.071,0.25,0.143,0.499,0.214,0.749"/>
							</g>
							<path style="fill:none;stroke:#263238;stroke-linecap:round;stroke-linejoin:round;" d="M337.185,282.848
								c0.631-0.523,1.06-1.267,1.727-1.744c0.874-0.624,2.049-0.695,3.091-0.438c1.043,0.257,1.987,0.805,2.914,1.346"/>
							<path style="fill:none;stroke:#263238;stroke-linecap:round;stroke-linejoin:round;" d="M351.132,282.012
								c0.927-0.541,1.871-1.09,2.914-1.346c1.043-0.257,2.217-0.186,3.092,0.438c0.667,0.476,1.096,1.22,1.727,1.744"/>
							<path style="fill:#FFFFFF;stroke:#263238;stroke-linecap:round;stroke-linejoin:round;" d="M341.583,310.915
								c0.187,3.45,1.587,6.823,3.9,9.391"/>
							<path style="fill:none;stroke:#263238;stroke-linecap:round;stroke-linejoin:round;" d="M341.597,273.464
								c0.37-0.912,0.876-1.769,1.497-2.533c0.294-0.362,0.626-0.712,1.05-0.904c0.425-0.192,0.962-0.197,1.325,0.097"/>
							<path style="fill:none;stroke:#263238;stroke-linecap:round;stroke-linejoin:round;" d="M343.432,273.86
								c0.868-1.711,2.669-2.91,4.582-3.05"/>
							<path style="fill:none;stroke:#263238;stroke-linecap:round;stroke-linejoin:round;" d="M345.444,273.962
								c0.618-0.835,5.463-3.523,6.571,0.63"/>
							<path style="fill:none;stroke:#263238;stroke-linecap:round;stroke-linejoin:round;" d="M338.074,274.869
								c-1.674-0.115-3.385,0.621-4.454,1.915"/>
							<path style="fill:none;stroke:#263238;stroke-linecap:round;stroke-linejoin:round;" d="M336.684,276.661
								c-1.793,0.428-3.314,1.855-3.854,3.617"/>
						</g>
						<path style="fill:none;stroke:#263238;stroke-linecap:round;stroke-linejoin:round;" d="M303.979,349.865
							c-0.077,2.195,0.577,4.41,1.833,6.212"/>
						<path style="fill:none;stroke:#263238;stroke-linecap:round;stroke-linejoin:round;" d="M313.964,341.092
							c0.876,6.517,1.257,13.101,1.136,19.676"/>
						<path style="fill:none;stroke:#263238;stroke-linecap:round;stroke-linejoin:round;" d="M384.301,336.433
							c-1.424,5.901-2.847,11.802-4.271,17.702"/>
					</g>
				</g>
			</g>
			<path style="fill:none;stroke:#263238;stroke-miterlimit:10;" d="M387.963,350.672c-1.263,3.862-3.264,7.482-5.863,10.606"/>
			<path style="fill:none;stroke:#263238;stroke-miterlimit:10;" d="M308.574,337.431c0.375,5.054,2.695,12.112,5.39,16.403"/>
			<g>
				<polyline style="fill:none;stroke:#263238;stroke-miterlimit:10;" points="347.72,334.634 347.336,350.93 351.132,350.93 
					351.383,323.236 				"/>
				<circle style="fill:none;stroke:#263238;stroke-miterlimit:10;" cx="349.266" cy="347.891" r="0.923"/>
				<path style="fill:none;stroke:#263238;stroke-miterlimit:10;" d="M350.383,336.288c0,0.51-0.413,0.923-0.923,0.923
					s-0.923-0.413-0.923-0.923c0-0.51,0.413-0.923,0.923-0.923S350.383,335.778,350.383,336.288z"/>
			</g>
		</g>
	</g>
</g>
<g id="Character">
	<g>
		<g>
			<g>
				<g>
					<g>
						<g>
							<path style="fill:#FFFFFF;stroke:#263238;stroke-linecap:round;stroke-linejoin:round;" d="M381.703,317.874
								c-0.091,0.314,2.455,11.13,2.455,11.13s1.689,0.713,1.95-1.595c0.07-0.62-0.249-3.056-0.21-4.181
								c0.114-3.257,0.907-6.068-2.069-6.419C383.83,316.809,382.085,316.559,381.703,317.874z"/>
							<path style="fill:#FFFFFF;stroke:#263238;stroke-linecap:round;stroke-linejoin:round;" d="M382.499,321.533
								c-0.543-0.062,0.74,2.065,0.81,6.658c0.03,1.959,1.077,3.695,1.077,3.695s1.337,0.595,1.294-1.727
								c-0.027-1.449-0.6-5.264-0.674-5.847c-0.5-3.951-0.456-3.411-0.387-2.964C384.62,321.349,383.319,321.627,382.499,321.533z"
								/>
							<g>
								<path style="fill:#FFFFFF;stroke:#263238;stroke-linecap:round;stroke-linejoin:round;" d="M380.373,322.597
									c-0.091,0.314,0.503,4.05,1.595,9.707c0.528,2.734,3.054,1.328,2.861-1.421c-0.102-1.447-0.598-2.621-0.611-5.107
									c-0.017-3.061-0.716-4.448-0.716-4.448S380.755,321.283,380.373,322.597z"/>
							</g>
						</g>
					</g>
					<g>
						<path style="fill:#FFFFFF;stroke:#263238;stroke-linecap:round;stroke-linejoin:round;" d="M390.231,274.781
							c-0.644,12.798-1.937,28.331-2.063,29.862l-0.248,4.806c0,0,0.857,2.475,0.777,4.564c-0.071,1.848-0.38,2.657-0.636,3.213
							c-0.424,0.918-1.522,2.27-1.527,2.296c-0.629,3.543-0.853,4.461-3.242,4.291c-0.125-0.009-0.151,3.699-0.151,3.699
							c0.46,2.051,0.435,3.557,0.251,4.353c-0.176,0.737-0.837,1.247-1.599,1.272c0,0-0.787-0.695-1.557-4.629
							c-0.092-0.469-0.502-3.758-0.527-4.277c-0.142-3.181,0.259-4.051,0.452-6.252c0.017-0.167,0.042-0.343,0.075-0.519
							c0,0,1.381-7.357,1.515-7.458l-0.996-23.57c-0.059-6.169,0.176-12.346,0.753-18.489c0.301-3.122-0.619-6.847-0.628-13.032
							c-0.008-5.457,1.708-15.51,1.992-19.393c0.067-0.937,3.147-0.879,3.222-1.046l5.29,1.766
							C391.386,236.237,390.909,261.473,390.231,274.781z"/>
					</g>
				</g>
				<g>
					<path style="fill:#FFFFFF;stroke:#263238;stroke-linecap:round;stroke-linejoin:round;" d="M384.222,315.328
						c-0.814,2.539-0.668,4.478-1.321,6.798c-0.143,0.508,0.192,1.501,0.653,1.59"/>
					<path style="fill:#FFFFFF;stroke:#263238;stroke-linecap:round;stroke-linejoin:round;" d="M383.08,315.328
						c0.109,0.789,0.219,1.577,0.328,2.366"/>
				</g>
			</g>
			<g>
				<g>
					<g>
						<g>
							<path style="fill:#FFFFFF;stroke:#263238;stroke-linecap:round;stroke-linejoin:round;" d="M448.071,318.98
								c0.091,0.314-2.455,11.13-2.455,11.13s-1.689,0.713-1.95-1.595c-0.07-0.62,0.249-3.056,0.21-4.181
								c-0.114-3.257-0.907-6.068,2.069-6.419C445.944,317.915,447.689,317.665,448.071,318.98z"/>
							<path style="fill:#FFFFFF;stroke:#263238;stroke-linecap:round;stroke-linejoin:round;" d="M447.275,322.639
								c0.543-0.062-0.74,2.065-0.81,6.658c-0.03,1.959-1.077,3.695-1.077,3.695s-1.337,0.595-1.294-1.727
								c0.027-1.448,0.6-5.263,0.674-5.846c0.5-3.951,0.456-3.411,0.387-2.964C445.155,322.455,446.456,322.733,447.275,322.639z"/>
							<g>
								<path style="fill:#FFFFFF;stroke:#263238;stroke-linecap:round;stroke-linejoin:round;" d="M449.402,323.703
									c0.091,0.314-0.503,4.05-1.595,9.707c-0.527,2.734-3.054,1.328-2.861-1.421c0.102-1.447,0.598-2.621,0.611-5.107
									c0.017-3.061,0.716-4.448,0.716-4.448S449.02,322.389,449.402,323.703z"/>
							</g>
						</g>
					</g>
					<g>
						<path style="fill:#FFFFFF;stroke:#263238;stroke-linecap:round;stroke-linejoin:round;" d="M439.544,275.887
							c0.644,12.798,1.937,28.331,2.063,29.862l0.248,4.806c0,0-0.857,2.475-0.777,4.564c0.071,1.848,0.38,2.657,0.636,3.213
							c0.424,0.918,1.522,2.27,1.527,2.296c0.629,3.543,0.853,4.461,3.242,4.291c0.126-0.009,0.151,3.7,0.151,3.7
							c-0.46,2.051-0.435,3.557-0.251,4.352c0.176,0.737,0.837,1.247,1.599,1.272c0,0,0.787-0.695,1.557-4.629
							c0.092-0.469,0.502-3.758,0.527-4.277c0.142-3.181-0.259-4.051-0.452-6.252c-0.017-0.167-0.042-0.343-0.075-0.519
							c0,0-1.381-7.357-1.515-7.458l0.996-23.57c0.059-6.169-0.176-12.346-0.753-18.489c-0.301-3.122,0.619-6.847,0.628-13.032
							c0.008-5.457-1.708-15.51-1.992-19.393c-0.067-0.938-3.147-0.879-3.222-1.046l-5.29,1.766
							C438.389,237.343,438.866,262.579,439.544,275.887z"/>
					</g>
				</g>
				<g>
					<path style="fill:#FFFFFF;stroke:#263238;stroke-linecap:round;stroke-linejoin:round;" d="M445.552,316.434
						c0.814,2.539,0.668,4.478,1.321,6.798c0.143,0.508-0.192,1.501-0.653,1.59"/>
					<path style="fill:#FFFFFF;stroke:#263238;stroke-linecap:round;stroke-linejoin:round;" d="M446.695,316.434
						c-0.11,0.789-0.219,1.577-0.329,2.366"/>
				</g>
			</g>
			<g>
				<g>
					
						<path style="fill:#FFFFFF;stroke:#263238;stroke-width:0.75;stroke-linecap:round;stroke-linejoin:round;stroke-miterlimit:10;" d="
						M401.043,447.602c0,0-1.635,4.581-6.546,8.528c-1.736,1.395-2.679,2.689-3.173,3.78c-0.704,1.555,0.508,3.31,2.215,3.31h16.223
						c0.988,0,1.893-0.596,2.234-1.524c0.515-1.404,0.849-3.863-0.365-7.729l-1.584-8.123L401.043,447.602z"/>
					
						<path style="fill:#263238;stroke:#263238;stroke-width:0.75;stroke-linecap:round;stroke-linejoin:round;stroke-miterlimit:10;" d="
						M411.995,461.696c0.515-1.404,0.849-3.863-0.365-7.729l-0.508-2.603l-1.091,1.516c0,0-1.166-1.862-5.291-1.862
						c-4.125,0-5.775,1.862-5.775,1.862l-0.457-0.896c-0.986,1.312-2.295,2.765-4.011,4.144c-1.736,1.395-2.679,2.689-3.173,3.78
						c-0.704,1.555,0.508,3.31,2.215,3.31h16.223C410.749,463.22,411.654,462.624,411.995,461.696z"/>
					
						<path style="fill:#FFFFFF;stroke:#263238;stroke-width:0.75;stroke-linecap:round;stroke-linejoin:round;stroke-miterlimit:10;" d="
						M391.143,460.615c-0.138,1.336,0.943,2.606,2.394,2.606h16.223c0.988,0,1.893-0.596,2.234-1.524
						c0.112-0.306,0.212-0.672,0.293-1.082H391.143z"/>
				</g>
				<path style="fill:#263238;" d="M416.43,302.561l-1.473,80.478l-1.18,64.709h-16.238l-8.646-120.009l2.076-30.073
					c12.044-3.122,21.076,1.85,24.231,3.992C416.003,302.201,416.43,302.561,416.43,302.561z"/>
			</g>
			<g>
				<g>
					
						<path style="fill:#FFFFFF;stroke:#263238;stroke-width:0.75;stroke-linecap:round;stroke-linejoin:round;stroke-miterlimit:10;" d="
						M428.877,447.602c0,0,1.634,4.581,6.546,8.528c1.736,1.395,2.679,2.689,3.173,3.78c0.704,1.555-0.508,3.31-2.215,3.31h-16.223
						c-0.988,0-1.893-0.596-2.234-1.524c-0.515-1.404-0.849-3.863,0.365-7.729l1.584-8.123L428.877,447.602z"/>
					
						<path style="fill:#263238;stroke:#263238;stroke-width:0.75;stroke-linecap:round;stroke-linejoin:round;stroke-miterlimit:10;" d="
						M417.925,461.696c-0.515-1.404-0.849-3.863,0.365-7.729l0.508-2.603l1.091,1.516c0,0,1.166-1.862,5.291-1.862
						s5.775,1.862,5.775,1.862l0.457-0.896c0.986,1.312,2.295,2.765,4.011,4.144c1.736,1.395,2.679,2.689,3.173,3.78
						c0.704,1.555-0.508,3.31-2.215,3.31h-16.223C419.17,463.22,418.265,462.624,417.925,461.696z"/>
					
						<path style="fill:#FFFFFF;stroke:#263238;stroke-width:0.75;stroke-linecap:round;stroke-linejoin:round;stroke-miterlimit:10;" d="
						M438.776,460.615c0.138,1.336-0.943,2.606-2.394,2.606h-16.223c-0.988,0-1.893-0.596-2.234-1.524
						c-0.112-0.306-0.212-0.672-0.293-1.082H438.776z"/>
				</g>
				<path style="fill:#263238;" d="M441.029,327.738l-8.655,120.009h-16.229l-1.189-64.709l1.473-80.478c0,0-0.427-0.36-1.23-0.904
					c3.582-1.682,12.513-4.888,24.03-1.9L441.029,327.738z"/>
			</g>
			<g>
				<g>
					<g>
						<g>
							<g>
								<g>
									<g>
										<defs>
											<path id="XMLID_7_" d="M390.282,253.563h-10.797l-0.837-0.034l1.473-8.471v-1.749c0-6.88-0.226-14.304,5.307-19.887
												C385.611,224.627,388.767,233.475,390.282,253.563z"/>
										</defs>
										<use xlink:href="#XMLID_7_"  style="overflow:visible;fill:#92E3A9;"/>
										<clipPath id="XMLID_00000129911318976580027580000013459114214485025702_">
											<use xlink:href="#XMLID_7_"  style="overflow:visible;"/>
										</clipPath>
										<path style="opacity:0.2;clip-path:url(#XMLID_00000129911318976580027580000013459114214485025702_);" d="
											M387.575,248.818c-1.211-0.628-2.422-1.256-3.633-1.884c1.143,2.111,2.287,4.223,3.43,6.334
											c-2.941,0.184-5.882,0.369-8.823,0.553c0.532-3.123,1.065-6.245,1.597-9.368c0.576,1.001,1.151,2.002,1.727,3.002
											c-1.532-2.664-3.226-10.293-0.359-12.404C384.376,238.372,385.839,244.627,387.575,248.818z"/>
										
											<use xlink:href="#XMLID_7_"  style="overflow:visible;fill:none;stroke:#263238;stroke-linecap:round;stroke-linejoin:round;"/>
									</g>
								</g>
								<g>
									<g>
										<defs>
											<path id="XMLID_6_" d="M438.404,252.781l0.005-0.028l3.889-23.476l1.129-6.813c5.993,6.545,5.328,16.499,5.328,19.95
												l1.584,10.339L438.404,252.781z"/>
										</defs>
										<use xlink:href="#XMLID_6_"  style="overflow:visible;fill:#92E3A9;"/>
										<clipPath id="XMLID_00000005954239999129419120000012157086483123061912_">
											<use xlink:href="#XMLID_6_"  style="overflow:visible;"/>
										</clipPath>
										<path style="opacity:0.2;clip-path:url(#XMLID_00000005954239999129419120000012157086483123061912_);" d="
											M441.702,238.658c0.644-1.452,1.287-2.904,1.931-4.356c-0.62,2.51-1.24,5.019-1.86,7.529
											c-0.185,0.748-0.36,1.579,0.01,2.255c0.452,0.824,1.581,1.068,2.481,0.797c0.9-0.27,1.625-0.927,2.316-1.564
											c-2.343,2.071-3.207,5.653-2.066,8.564c-1.455,1.63-4.631,0.947-5.286-1.138c-0.288-0.916-0.139-1.906,0.012-2.854
											c0.674-4.216,1.129-8.57,2.048-12.719C441.407,235.927,441.999,237.985,441.702,238.658z"/>
										
											<use xlink:href="#XMLID_6_"  style="overflow:visible;fill:none;stroke:#263238;stroke-linecap:round;stroke-linejoin:round;"/>
									</g>
								</g>
								<g>
									<defs>
										<path id="XMLID_5_" d="M440.067,242.74c-2.519,23.402-0.787,56.397-0.787,56.397c-19.352,8.763-48.822-0.402-48.831-0.41
											c1.013-19.033,0.678-33.873-0.167-45.165c-1.515-20.088-4.671-28.935-4.855-30.141c-0.025-0.117-0.033-0.176-0.033-0.176
											l17.585-4.771l2.385-0.653c0.569-0.377,1.323-0.678,2.185-0.887c0.896-0.226,1.917-0.368,3.013-0.444
											c0.134-0.008,0.276-0.017,0.418-0.025c0.025,0,0.042-0.008,0.067-0.008c2.302-0.126,4.863,0,7.148,0.209
											c1.548,0.142,2.971,0.327,4.101,0.494c0.017,0.008,0.033,0.008,0.05,0.008c0.971,0.142,2.486,0.477,4.277,0.904
											c6.554,1.574,16.782,4.478,16.782,4.478S440.435,239.292,440.067,242.74z"/>
									</defs>
									<use xlink:href="#XMLID_5_"  style="overflow:visible;fill:#92E3A9;"/>
									<clipPath id="XMLID_00000065039978925972787200000002163165851523785878_">
										<use xlink:href="#XMLID_5_"  style="overflow:visible;"/>
									</clipPath>
									<path style="opacity:0.2;clip-path:url(#XMLID_00000065039978925972787200000002163165851523785878_);" d="
										M390.503,248.872c3.92,5.897,7.84,11.794,11.76,17.69c-1.381-3.657-2.762-7.314-4.143-10.971
										c6.696,12.86,17.673,23.445,30.769,29.668c-7.26,1.24-15.032-0.95-20.578-5.797c4.353,6.462,11.808,10.729,19.585,11.21
										c-7.863,3.365-16.781,4.21-25.135,2.382c6.479,4.521,14.102,7.39,21.955,8.262c-7.43,0.763-14.932,0.823-22.373,0.179
										c-4.703-0.407-10.18-1.669-12.029-6.012c-0.763-1.791-0.738-3.805-0.701-5.752c0.252-13.288,0.504-26.577,0.756-39.865
										c-0.133,0.579-0.265,1.158-0.398,1.736"/>
									<path style="opacity:0.2;clip-path:url(#XMLID_00000065039978925972787200000002163165851523785878_);" d="
										M432.074,273.979c-7.886-2.235-16.634-7.261-23.179-11.126c2.604,2.249,6.516,6.936,9.824,8.377
										C422.512,272.883,428.224,273.329,432.074,273.979z"/>
									
										<use xlink:href="#XMLID_5_"  style="overflow:visible;fill:none;stroke:#263238;stroke-linecap:round;stroke-linejoin:round;"/>
								</g>
								<path style="fill:#FFFFFF;stroke:#263238;stroke-linecap:round;stroke-linejoin:round;" d="M429.33,219.044
									c-3.48,4.88-8.86,7.32-14.23,7.32c-5.24,0-10.49-2.32-13.99-7l-0.24-0.32l6.68-2.11v-9.77l14.75-0.71v10.55l0.34-0.07
									L429.33,219.044z"/>
								<path style="fill:#FFFFFF;stroke:#263238;stroke-linecap:round;stroke-linejoin:round;" d="M400.643,194.659
									c-0.428,0.693-0.787,1.454-0.849,2.266c-0.077,1.002,0.31,1.997,0.888,2.819c0.578,0.823,1.338,1.497,2.098,2.155
									c0.317,0.274,0.643,0.551,1.031,0.71c0.388,0.159,0.856,0.181,1.209-0.045c0.389-0.248,0.558-0.744,0.545-1.205
									c-0.013-0.461-0.177-0.902-0.323-1.339c-0.617-1.844-0.423-3.827-0.953-5.614
									C403.68,192.355,401.517,193.243,400.643,194.659z"/>
								<path style="fill:#FFFFFF;stroke:#263238;stroke-linecap:round;stroke-linejoin:round;" d="M430,194.659
									c0.428,0.693,0.787,1.454,0.849,2.266c0.077,1.002-0.31,1.997-0.888,2.819c-0.578,0.823-1.338,1.497-2.098,2.155
									c-0.317,0.274-0.643,0.551-1.031,0.71c-0.388,0.159-0.856,0.181-1.209-0.045c-0.389-0.248-0.558-0.744-0.545-1.205
									c0.013-0.461,0.177-0.902,0.323-1.339c0.617-1.844,0.423-3.827,0.953-5.614C426.963,192.355,429.125,193.243,430,194.659z"
									/>
								<path style="fill:#263238;" d="M407.554,209.552c-0.003,0.001,2.279,8.632,6.846,8.818c4.567,0.185,7.897-7.927,7.897-7.927
									S417.583,207.032,407.554,209.552z"/>
								<path style="fill:#FFFFFF;stroke:#263238;stroke-linecap:round;stroke-linejoin:round;" d="M427.766,192.489
									c0,9.551-5.617,22.713-12.546,22.713c-6.928,0-12.546-13.163-12.546-22.713c0-9.551,5.617-17.287,12.546-17.287
									C422.149,175.202,427.766,182.938,427.766,192.489z"/>
								<path style="fill:#263238;" d="M410.621,194.104c0.388,0,0.703,0.805,0.703,1.797s-0.315,1.797-0.703,1.797
									s-0.703-0.805-0.703-1.797S410.233,194.104,410.621,194.104z"/>
								<path style="fill:#263238;" d="M419.386,194.104c0.388,0,0.703,0.805,0.703,1.797s-0.315,1.797-0.703,1.797
									c-0.388,0-0.703-0.805-0.703-1.797S418.998,194.104,419.386,194.104z"/>
								<path style="fill:none;stroke:#263238;stroke-linecap:round;stroke-linejoin:round;" d="M416.491,193.199l-0.46,0.924
									c0,0,0.311,4.853,0.445,5.904c0.134,1.051-0.636,2.225-1.782,1.61l-1.147-0.624"/>
								<path style="fill:none;stroke:#263238;stroke-linecap:round;stroke-linejoin:round;" d="M411.721,205.697
									c0,0.957,6.998,0.957,6.998,0"/>
								<path style="fill:#263238;" d="M403.262,198.928c0.734,0.143,0.734,0.143,1.469,0.287c-0.483-1.292-0.873-3.399-1.008-4.772
									c-0.135-1.373,1.842-3.431,1.842-4.395c0-5.236,2.847-5.085,3.429-4.316c0.075-0.956,4.553-5.574,7.896,0.826
									c0.852,1.631,9.948,3.077,9.917,4.55c-0.066,3.149-0.283,4.611-0.761,7.724c0.746,0.145,1.393-0.628,1.485-1.382
									c0.092-0.754,0.28-3.655,0.911-4.077c0.482,0.661,0.765,0.817,1.581,0.765c-0.361-0.93-0.728-1.894-0.685-2.89
									c0.043-0.997,0.565-0.335,1.522-0.618c0.504-0.149,4.757-3.013,5.286-4.548c-1.927,0.242-3.744-1.08-4.848-2.678
									c-1.104-1.598-1.704-3.485-2.637-5.189c-2.322-4.241-6.99-7.253-11.821-7.066c-4.831,0.186-9.456,3.892-10.191,8.671
									c-0.904-0.456-2.042-0.157-2.838,0.468c-0.796,0.625-1.325,1.522-1.835,2.397c-0.923,1.583-1.861,3.208-2.189,5.011
									c-0.328,1.803,1.497,4.33,2.889,5.522C402.856,192.806,402.757,198.928,403.262,198.928z"/>
								<path style="fill:none;stroke:#263238;stroke-linecap:round;stroke-linejoin:round;" d="M406.912,192.912
									c0.49-0.407,0.823-0.985,1.342-1.355c0.679-0.485,1.592-0.54,2.403-0.341c0.81,0.199,1.544,0.625,2.265,1.046"/>
								<path style="fill:none;stroke:#263238;stroke-linecap:round;stroke-linejoin:round;" d="M417.75,192.262
									c0.721-0.421,1.454-0.847,2.265-1.046c0.81-0.199,1.723-0.144,2.402,0.341c0.518,0.37,0.852,0.948,1.342,1.355"/>
								<path style="fill:#FFFFFF;stroke:#263238;stroke-linecap:round;stroke-linejoin:round;" d="M410.329,214.724
									c0.145,2.681,1.234,5.302,3.031,7.298"/>
								<path style="fill:none;stroke:#263238;stroke-linecap:round;stroke-linejoin:round;" d="M410.34,185.618
									c0.288-0.709,0.681-1.375,1.163-1.969c0.229-0.281,0.486-0.553,0.816-0.703c0.33-0.149,0.748-0.153,1.03,0.076"/>
								<path style="fill:none;stroke:#263238;stroke-linecap:round;stroke-linejoin:round;" d="M411.766,185.926
									c0.674-1.329,2.074-2.261,3.561-2.371"/>
								<path style="fill:none;stroke:#263238;stroke-linecap:round;stroke-linejoin:round;" d="M413.33,186.006
									c0.48-0.649,4.245-2.738,5.106,0.49"/>
								<path style="fill:none;stroke:#263238;stroke-linecap:round;stroke-linejoin:round;" d="M407.603,186.711
									c-1.301-0.089-2.631,0.482-3.461,1.488"/>
								<path style="fill:none;stroke:#263238;stroke-linecap:round;stroke-linejoin:round;" d="M406.522,188.104
									c-1.394,0.333-2.575,1.441-2.995,2.811"/>
							</g>
						</g>
					</g>
				</g>
			</g>
		</g>
		<g>
			<g>
				<path style="fill:none;stroke:#5C5C5C;stroke-linecap:round;stroke-linejoin:round;stroke-miterlimit:10;" d="M406.125,326.627
					c3.005,1.38,6.103,2.559,9.265,3.528l10.557-3.662"/>
				<path style="fill:none;stroke:#5C5C5C;stroke-linecap:round;stroke-linejoin:round;stroke-miterlimit:10;" d="M389.88,316.015
					c1.772-0.238,2.995-1.857,3.9-3.398c1.74-2.961,3.089-6.151,4.004-9.461"/>
				<path style="fill:none;stroke:#5C5C5C;stroke-linecap:round;stroke-linejoin:round;stroke-miterlimit:10;" d="M439.529,316.015
					c-1.772-0.238-2.995-1.857-3.9-3.398c-1.739-2.961-3.089-6.151-4.004-9.461"/>
				<g>
					<g>
						<path style="fill:none;stroke:#5C5C5C;stroke-linecap:round;stroke-linejoin:round;stroke-miterlimit:10;" d="
							M414.339,303.157v1.443c0,0,16.053,0.717,23.214-3.268"/>
						<path style="fill:none;stroke:#5C5C5C;stroke-linecap:round;stroke-linejoin:round;stroke-miterlimit:10;" d="
							M392.334,300.681c5.627,3.061,15.608,3.6,22.005,3.919"/>
					</g>
					<g>
						<path style="fill:none;stroke:#5C5C5C;stroke-linecap:round;stroke-linejoin:round;stroke-miterlimit:10;" d="
							M415.241,304.628l0.201,10.061c0,0,0.008,0.31,0.008,0.829l0.117,5.566c0,0,2.519,0.41,2.955-2.101
							c0.368-2.067,0.109-11.191,0-14.338"/>
						<path style="fill:none;stroke:#5C5C5C;stroke-linecap:round;stroke-linejoin:round;stroke-miterlimit:10;" d="M414.8,391.607
							c-0.155-5.898,0.639-76.917,0.639-76.917"/>
					</g>
				</g>
			</g>
			<g>
				<g>
					<g>
						<path style="fill:none;stroke:#263238;stroke-linecap:round;stroke-linejoin:round;" d="M397.632,286.516
							c8.6,6.498,20.656,8.104,30.658,4.085"/>
						<g>
							<path style="fill:none;stroke:#263238;stroke-linecap:round;stroke-linejoin:round;" d="M399.479,255.592
								c2.522,4.922,5.267,9.717,8.638,14.089c5.116,6.635,11.847,12.31,19.872,14.714"/>
							<path style="fill:none;stroke:#263238;stroke-linecap:round;stroke-linejoin:round;" d="M397.88,252.402
								c0.272,0.555,0.297,0.605,0.573,1.159"/>
							<path style="fill:none;stroke:#263238;stroke-linecap:round;stroke-linejoin:round;" d="M395.688,247.89
								c0.411,0.854,0.823,1.708,1.238,2.562"/>
							<path style="fill:none;stroke:#263238;stroke-linecap:round;stroke-linejoin:round;" d="M408.895,262.854
								c5.532,6.635,13.873,10.847,22.497,11.361"/>
						</g>
					</g>
					<g>
						<path style="fill:none;stroke:#263238;stroke-linecap:round;stroke-linejoin:round;" d="M380.19,237.724
							c0.104,6.013,1.368,8.662,2.547,10.121"/>
						<path style="fill:none;stroke:#263238;stroke-linecap:round;stroke-linejoin:round;" d="M389.788,238.46
							c0.143,6.619,1.226,13.942,1.024,24.394"/>
					</g>
					<path style="fill:none;stroke:#263238;stroke-linecap:round;stroke-linejoin:round;stroke-miterlimit:10;" d="M385.396,234.992
						c0.292,3.928,2.094,9.412,4.189,12.748"/>
				</g>
				<path style="fill:none;stroke:#263238;stroke-linecap:round;stroke-linejoin:round;" d="M444.714,232.064
					c-1.107,4.586-2.397,9.636-4.794,12.113"/>
				<g>
					<path style="fill:none;stroke:#263238;stroke-linecap:round;stroke-linejoin:round;stroke-miterlimit:10;" d="M443.572,247.74
						c-0.688,0.583-1.369,1.105-2.002,1.588"/>
					<path style="fill:none;stroke:#263238;stroke-linecap:round;stroke-linejoin:round;stroke-miterlimit:10;" d="M448.775,240.409
						c-0.797,2.502-2.177,4.401-3.678,5.924"/>
				</g>
			</g>
		</g>
	</g>
</g>
<g id="Floor" style="display:none;">
	
		<line style="display:inline;fill:none;stroke:#263238;stroke-linecap:round;stroke-linejoin:round;" x1="466.226" y1="463.166" x2="50.461" y2="463.166"/>
</g>
</svg>
